<svg width="317" height="227" viewBox="0 0 317 227" fill="none" xmlns="http://www.w3.org/2000/svg">
<path d="M95.5634 25.5751C108.993 15.3851 122.733 5.93513 139.893 2.91513C167.613 -1.96487 192.713 3.31513 214.713 21.4151C216.623 22.9751 218.813 24.1951 220.873 25.5751L225.213 28.8751C226.413 31.2451 227.333 33.8751 228.873 35.9751C245.383 59.0851 251.023 84.2651 243.623 111.975C243.483 110.845 243.343 109.725 243.143 108.165C224.643 134.615 199.663 147.575 168.143 148.295C170.243 139.035 171.933 129.635 180.033 123.145C198.713 108.145 189.353 80.0951 175.253 69.5551C160.813 58.7551 142.063 64.1051 130.253 75.1451C128.103 77.1451 127.193 80.5151 125.713 83.2451C123.623 85.7551 120.533 87.9451 119.643 90.8251C116.223 101.825 113.503 112.995 110.533 124.105C108.663 122.955 106.423 122.105 104.983 120.605C92.7135 107.495 84.2134 92.4251 81.8934 74.3351C80.8934 66.2451 79.9734 58.1251 79.0234 50.0151L91.0834 28.8751L95.5634 25.5751ZM110.173 37.8051C105.863 46.8051 109.493 57.6151 118.563 62.7351C122.837 65.1292 127.87 65.7802 132.612 64.5523C137.354 63.3244 141.439 60.3125 144.013 56.1451C149.863 49.5751 149.533 42.2451 145.633 35.2051C141.733 28.1651 134.993 24.1551 126.863 24.8451C118.953 25.4851 112.563 29.3151 110.183 37.8051H110.173ZM202.833 57.5951C209.343 50.7651 210.033 43.1151 205.703 34.9851C201.963 27.9851 193.043 23.5051 185.583 24.6451C177.323 25.9151 171.463 31.7151 169.193 40.8751C166.923 50.0351 170.913 58.6751 179.553 63.0051C187.503 66.9851 196.483 64.8951 202.843 57.5951H202.833ZM203.513 127.105C198.513 130.885 194.433 135.235 189.413 137.405C184.583 139.495 178.773 139.335 173.043 140.215C185.343 148.035 199.933 141.775 203.563 127.105H203.513Z" fill="#9F9E9E"/>
<path d="M110.563 124.105C113.563 112.995 116.253 101.795 119.673 90.8251C120.563 87.9451 123.673 85.7551 125.743 83.2451C126.903 83.9151 128.393 85.4051 129.183 85.1051C137.613 81.8051 145.893 82.4951 153.923 86.0051C158.483 88.0051 162.693 90.7451 167.063 93.1551C168.153 91.9951 169.253 90.8451 170.353 89.6851C167.783 88.6851 164.883 88.1251 162.693 86.5751C150.953 78.1851 138.563 78.5751 125.693 83.2751C127.173 80.5451 128.083 77.1851 130.233 75.1751C142.073 64.1751 160.823 58.7851 175.233 69.5851C189.333 80.1251 198.693 108.205 180.013 123.175C171.913 129.665 170.223 139.065 168.123 148.325L164.463 177.325C162.623 190.925 160.913 204.545 158.813 218.115C158.363 221.045 156.813 225.945 155.203 226.185C148.943 227.135 142.453 226.685 136.073 226.355C135.513 226.355 135.073 223.355 134.623 221.755C130.103 205.395 125.623 189.025 120.983 172.695C120.533 171.135 119.063 169.865 118.063 168.455C117.523 164.815 117.063 161.165 116.423 157.545C114.563 146.385 112.563 135.245 110.563 124.105ZM131.803 178.485H145.683C140.613 173.875 135.683 171.225 131.763 178.485L131.143 179.135L131.803 178.485ZM122.713 163.345L143.253 158.885C132.723 155.235 126.163 156.745 122.723 163.365L122.363 163.985L122.713 163.345ZM174.433 84.4851C167.703 69.9951 148.223 64.4851 138.363 74.4151C153.033 70.0451 164.563 74.1151 174.433 84.4851ZM120.363 99.2151C134.063 94.2151 146.183 96.2751 156.293 107.365C151.253 93.4851 131.233 89.0751 120.363 99.2151ZM118.013 111.945L147.563 116.295C138.133 107.885 125.263 106.485 118.013 111.945V111.945ZM144.123 128.485C139.403 122.045 122.013 120.645 116.933 127.085L144.123 128.485ZM143.233 144.405C132.133 137.945 123.463 137.995 117.483 144.405H143.233ZM131.803 196.405L149.313 194.105C142.113 189.575 137.183 189.865 131.803 196.375V196.405Z" fill="#B5B5B5"/>
<path d="M95.5634 25.5752L91.1034 28.8652C72.1634 13.4852 52.0434 7.96518 29.4234 21.0652C14.2934 29.8252 6.05338 46.9352 11.9234 63.3852C18.9734 83.1352 27.6334 102.385 36.5634 121.385C41.1434 131.125 51.2134 133.985 61.7034 130.545C66.4734 128.985 71.1534 127.205 75.8734 125.545C75.9885 125.998 75.9885 126.472 75.8734 126.925C65.7434 131.525 55.8134 136.665 45.4034 140.505C38.9334 142.895 34.2934 138.635 31.9334 132.665C28.1634 123.115 25.0334 113.295 21.1134 103.805C15.2734 89.7052 8.26339 76.0652 3.11339 61.7452C-3.14661 44.4752 -0.166604 28.0852 13.8734 15.6452C30.4134 0.985202 49.4734 -4.61481 70.9934 4.44519C81.4134 8.79519 89.9734 15.4852 95.5634 25.5752Z" fill="#B5B5B5"/>
<path d="M225.224 28.8754L220.884 25.5754C230.084 9.22542 251.684 -1.95459 269.764 0.285407C292.204 3.06541 310.364 17.9054 315.164 37.5854C317.784 48.3254 315.324 58.7054 311.354 68.4954C305.414 83.1554 298.354 97.3654 292.114 111.895C289.444 118.105 287.774 124.735 285.224 131.005C281.474 140.215 276.874 142.945 267.484 139.575C258.094 136.205 249.564 131.205 240.564 126.915C240.449 126.442 240.449 125.949 240.564 125.475C245.744 127.325 250.874 129.365 256.114 130.995C265.594 133.945 273.114 132.795 277.944 123.395C287.594 104.545 297.394 85.3954 303.754 65.3254C313.644 34.1154 288.384 15.6054 264.094 13.7854C248.804 12.6454 236.564 19.6554 225.224 28.8754Z" fill="#B5B5B5"/>
<path d="M75.8635 126.865C75.9786 126.412 75.9786 125.938 75.8635 125.485L73.2235 115.425C67.3235 92.9251 67.9235 71.0051 79.0435 50.0151C79.9935 58.1251 80.8735 66.2451 81.9135 74.3351C84.2335 92.4251 92.7335 107.495 105.004 120.605C106.444 122.145 108.684 122.955 110.554 124.105C112.554 135.245 114.554 146.385 116.464 157.535C117.094 161.155 117.564 164.805 118.104 168.445C101.914 160.515 89.7835 148.365 80.8035 132.845C79.5635 130.635 77.5635 128.845 75.8635 126.865Z" fill="#8F8E8E"/>
<path d="M240.563 125.485C240.449 125.958 240.449 126.452 240.563 126.925C238.873 128.875 236.873 130.625 235.563 132.795C219.273 159.475 196.443 175.635 164.563 177.325C165.77 167.665 166.987 157.999 168.213 148.325C199.703 147.605 224.684 134.645 243.214 108.195C243.414 109.755 243.553 110.875 243.693 112.005C242.633 116.499 241.59 120.992 240.563 125.485Z" fill="#8F8E8E"/>
<path d="M240.563 125.485C241.59 120.992 242.617 116.502 243.643 112.015C251.043 84.2753 245.403 59.0953 228.893 36.0153C227.353 33.8753 226.433 31.2853 225.233 28.9153C236.553 19.6953 248.813 12.6853 264.093 13.8253C288.383 15.6453 313.643 34.1553 303.753 65.3653C297.393 85.4453 287.593 104.585 277.943 123.435C273.123 132.835 265.593 133.985 256.113 131.035C250.863 129.365 245.733 127.325 240.563 125.485Z" fill="#F6B6B8"/>
<path d="M79.0636 50.0155C67.9436 71.0155 67.3436 92.9255 73.2436 115.426L75.8836 125.486C71.1636 127.176 66.4836 128.956 61.7136 130.486C51.2236 133.926 41.1536 131.066 36.5736 121.326C27.6436 102.326 18.9836 83.1055 11.9336 63.3255C6.06356 46.8755 14.3036 29.7655 29.4336 21.0055C52.0536 7.90552 72.1736 13.4255 91.1136 28.8055C87.1069 35.9255 83.0902 42.9955 79.0636 50.0155Z" fill="#F6B6B8"/>
<path d="M169.204 40.8755C171.474 31.7155 177.334 25.8755 185.594 24.6455C193.054 23.5055 201.974 27.9555 205.714 34.9855C210.044 43.1155 209.354 50.7655 202.844 57.5955C201.845 57.5158 200.842 57.5158 199.844 57.5955C184.224 60.1055 179.494 57.7055 172.324 43.8355C171.684 42.6655 170.264 41.8655 169.204 40.8755ZM192.444 43.4855C187.494 40.6455 184.764 37.8255 182.304 38.0455C180.124 38.2455 178.244 41.8155 176.234 43.8955C178.454 46.0355 180.514 49.6255 182.924 49.8955C185.164 50.1555 187.794 46.8355 192.444 43.4855Z" fill="#FCFBFA"/>
<path d="M110.184 37.8051C112.514 29.3151 118.954 25.5151 126.874 24.8051C135.004 24.1151 141.704 28.0651 145.644 35.1651C149.584 42.2651 149.874 49.5351 144.024 56.1051C142.604 56.4751 141.154 56.7851 139.754 57.2351C125.184 61.8951 115.224 55.9351 112.024 40.7451C111.794 39.7151 110.814 38.7951 110.184 37.8051ZM136.124 34.6651C133.124 39.2351 129.914 41.9551 130.324 43.8951C130.864 46.4151 134.264 48.3251 136.434 50.4951C138.484 48.4451 142.084 46.4351 142.154 44.3151C142.234 41.8551 139.204 39.2951 136.124 34.6651Z" fill="#FCFBFA"/>
<path d="M110.183 37.8052C110.813 38.8052 111.793 39.7152 112.023 40.8052C115.223 55.9952 125.183 61.9552 139.753 57.2952C141.153 56.8452 142.603 56.5352 144.023 56.1652C141.445 60.3317 137.358 63.3414 132.613 64.5656C127.869 65.7899 122.836 65.1341 118.563 62.7352C109.503 57.6152 105.873 46.8352 110.183 37.8052Z" fill="#EBE9E5"/>
<path d="M169.203 40.8755C170.263 41.8755 171.683 42.6655 172.313 43.8755C179.483 57.7455 184.213 60.1455 199.833 57.6355C200.832 57.5558 201.835 57.5558 202.833 57.6355C196.473 64.9355 187.493 67.0255 179.553 63.0455C170.923 58.6755 166.893 50.0555 169.203 40.8755Z" fill="#EBE9E5"/>
<path d="M203.564 127.105C199.974 141.775 185.384 148.035 173.094 140.215C178.824 139.335 184.634 139.495 189.464 137.405C194.444 135.235 198.564 130.885 203.564 127.105Z" fill="#1B1B1B"/>
<path d="M125.724 83.2754C138.574 78.5254 150.964 78.1854 162.724 86.5754C164.914 88.1254 167.814 88.6754 170.384 89.6854C169.284 90.8454 168.184 91.9954 167.094 93.1554C162.724 90.7454 158.514 87.9954 153.954 86.0054C145.954 82.4954 137.644 81.8054 129.214 85.1054C128.424 85.4054 126.934 83.9154 125.774 83.2454L125.724 83.2754Z" fill="#9F9E9E"/>
<path d="M174.434 84.4852C164.584 74.1452 153.034 70.0752 138.364 74.4152C148.224 64.4852 167.704 69.9652 174.434 84.4852Z" fill="#9F9E9E"/>
<path d="M120.364 99.2153C131.234 89.0753 151.254 93.5253 156.294 107.365C146.184 96.2753 134.064 94.1953 120.364 99.2153Z" fill="#9F9E9E"/>
<path d="M118.013 111.945C125.263 106.475 138.133 107.885 147.523 116.295L118.013 111.945Z" fill="#9F9E9E"/>
<path d="M144.124 128.486L116.934 127.086C122.014 120.646 139.404 122.046 144.124 128.486Z" fill="#9F9E9E"/>
<path d="M143.233 144.405H117.483C123.463 137.995 132.133 137.945 143.233 144.405Z" fill="#9F9E9E"/>
<path d="M122.723 163.365C126.163 156.745 132.723 155.235 143.253 158.885L122.713 163.345L122.723 163.365Z" fill="#9F9E9E"/>
<path d="M131.803 196.375C137.183 189.865 142.113 189.575 149.313 194.075L131.803 196.375Z" fill="#9F9E9E"/>
<path d="M131.763 178.486C135.683 171.266 140.613 173.916 145.683 178.486H131.803H131.763Z" fill="#9F9E9E"/>
<ellipse cx="135.5" cy="41.5" rx="8.5" ry="9.5" fill="#FCFBFA"/>
<ellipse cx="184.5" cy="41.5" rx="8.5" ry="9.5" fill="#FCFBFA"/>
<circle cx="135" cy="43" r="8" fill="#1B1B1B"/>
<circle cx="184" cy="43" r="8" fill="#1B1B1B"/>
<circle cx="138" cy="43" r="2" fill="#EBE9E5"/>
<circle cx="187" cy="43" r="2" fill="#EBE9E5"/>
</svg>
