<svg width="268" height="184" viewBox="0 0 268 184" fill="none" xmlns="http://www.w3.org/2000/svg">
<path d="M55.0592 51.3376C52.3593 57.1108 48.8219 62.6794 47.1579 68.7003C44.9539 76.6815 44.2266 85.0936 42.7499 93.915C34.6172 94.6905 29.3606 90.0698 25.118 83.8119C9.60184 61.0099 25.0188 17.3878 55.3678 15.0505C62.3875 14.5012 69.7819 18.5726 77 20.5113L55.0592 51.3376Z" fill="#79736D"/>
<path d="M84.4799 13.8958C93.7999 10.3658 102.89 5.89581 112.48 3.49581C134.97 -2.22419 156.62 1.11581 177.17 11.8758C178.98 12.6667 180.84 13.3349 182.74 13.8758L194.48 22.8758C195.61 24.2058 196.69 25.5858 197.88 26.8758C214.78 44.8758 224.33 66.0458 225 90.9458V103.046L222.3 112.046C220.708 113.198 219.222 114.49 217.86 115.906C194.24 145.166 163.42 157.656 126.8 150.666C85.9099 142.856 52.5299 105.456 54.1599 61.6058C54.2799 58.2758 53.1599 54.9058 52.6699 51.5558L72.5999 22.9058L84.4799 13.8958ZM155.22 40.9858C151.22 50.2758 153.93 59.5158 162.22 64.8458C171.08 70.5658 180.15 69.1158 187.42 60.8458C193.66 54.2858 194.66 46.9158 190.48 38.9758C186.62 31.6258 180.43 28.2258 172.06 28.7958C163.79 29.3158 157.64 32.5758 155.19 40.9858H155.22ZM104.42 64.4758C111.97 60.0958 115.42 52.9758 113.71 45.1158C111.71 35.8458 105.63 29.8858 97.1799 28.9558C87.2799 27.8758 80.9899 31.2058 77.0799 39.6158C71.0099 46.1758 74.7399 57.8858 80.6899 63.1658C88.0299 69.6858 96.7599 70.0958 104.42 64.4758ZM108.07 109.176C109.29 119.916 114.99 125.126 128.3 127.636C140.6 129.966 154.3 125.636 157.91 117.916C159.11 115.336 158.97 112.126 159.44 109.206C159.14 103.726 159.31 98.2058 158.44 92.7858C155.9 76.8558 152.14 61.2158 142.73 47.7158C137.29 39.8958 131.86 39.2358 126.4 46.5458C112.6 65.0158 106.2 85.9658 108.07 109.176ZM133.41 140.886C141.9 147.746 149.52 147.956 157.22 144.236C163.22 141.336 168.29 137.236 169.45 128.496C155.08 142.936 154.07 143.286 133.41 140.886Z" fill="#AFA9A5"/>
<path d="M84.48 13.8955L72.6 22.9955C66.05 21.1955 59.34 17.4155 52.97 17.9255C25.4 20.0955 11.41 60.5955 25.48 81.7655C29.34 87.5755 34.11 91.8655 41.48 91.1455C42.8 82.9855 43.48 75.1955 45.48 67.7655C46.99 62.1555 50.2 57.0055 52.65 51.6455C53.18 54.9955 54.26 58.3655 54.14 61.6955C52.51 105.545 85.89 142.945 126.78 150.755C163.4 157.755 194.22 145.255 217.84 115.995C219.204 114.593 220.69 113.315 222.28 112.175C217.19 144.735 186.37 175.176 151.89 181.686C100.63 191.356 54.09 159.875 43.47 108.605C43.0783 107.317 42.4151 106.127 41.525 105.116C40.6349 104.106 39.5387 103.297 38.31 102.745C16.1 94.6455 4.54 79.3155 0.309996 55.6955C-1.39 46.1555 4.59999 38.3455 1.50999 29.5355C1.08999 28.3355 3.66999 26.2855 4.36999 24.4355C5.56999 21.2855 6.14999 17.9055 7.41999 14.7955C8.28363 12.734 9.54809 10.8645 11.14 9.29549C21.19 -0.434507 33.88 -0.704509 46.51 0.505491C60.14 1.80549 73.07 5.85549 84.48 13.8955Z" fill="#9C9793"/>
<path d="M194.48 22.9453L182.74 13.9453C201.02 2.16527 220.81 -3.05472 242.25 2.02528C247.76 3.33528 256.61 7.59528 256.81 10.9353C257.37 19.8453 267.87 24.9353 264.58 34.4953C264.31 35.2753 264.96 36.4253 265.31 37.3553C270.83 52.1353 265.76 65.5853 259.18 78.3553C252.6 91.1253 241.72 98.8953 228 102.775C227.011 102.979 226.008 103.106 225 103.155C225 99.1553 225 95.1219 225 91.0553C233.53 91.9953 238.54 87.1953 242.42 80.4753C251.14 65.3453 246.28 40.4753 234.8 28.8453C222.17 15.9853 208.77 13.9253 194.48 22.9453Z" fill="#9C9793"/>
<path d="M194.48 22.9458C208.8 13.9458 222.2 15.9458 234.8 28.7858C246.28 40.4558 251.14 65.2858 242.42 80.4158C238.48 87.1758 233.48 91.9358 224.97 90.9958C224.3 66.0958 214.75 44.9958 197.85 26.9258C196.66 25.6558 195.58 24.2758 194.48 22.9458Z" fill="#79736D"/>
<path d="M108.07 109.175C125.19 107.935 142.32 102.745 159.44 109.175C158.97 112.095 159.11 115.305 157.91 117.885C154.29 125.645 140.6 129.885 128.3 127.605C114.99 125.175 109.29 119.915 108.07 109.175Z" fill="#060707"/>
<path d="M155.19 40.9854C155.93 43.2354 156.74 45.4754 157.41 47.7454C160.53 58.2754 172.15 64.4753 180.68 61.2153C182.68 60.4553 185.11 60.9053 187.35 60.7953C180.08 69.1153 171.01 70.5653 162.15 64.7953C153.9 59.5153 151.21 50.2754 155.19 40.9854Z" fill="#EBE9E5"/>
<path d="M77.08 39.6152C78.31 44.0752 78.66 49.0552 80.95 52.8752C82.6144 55.8499 85.067 58.3078 88.0381 59.9786C91.0092 61.6494 94.3835 62.4683 97.79 62.3452C99.99 62.3452 102.21 63.7152 104.41 64.4652C96.76 70.0952 88.03 69.6852 80.69 63.1652C74.74 57.8852 71.01 46.1752 77.08 39.6152Z" fill="#EBE9E5"/>
<path d="M133.41 140.886C154.07 143.286 155.08 142.886 169.41 128.496C168.25 137.226 163.18 141.336 157.18 144.236C149.48 147.956 141.9 147.746 133.41 140.886Z" fill="#4F4F4D"/>
<circle cx="104" cy="48" r="7" fill="#252525"/>
<circle cx="165" cy="48" r="7" fill="#252525"/>
<circle cx="107.5" cy="47.5" r="1.5" fill="#E5E5E5"/>
<circle cx="168.5" cy="47.5" r="1.5" fill="#E5E5E5"/>
</svg>
