<svg width="190" height="193" viewBox="0 0 190 193" fill="none" xmlns="http://www.w3.org/2000/svg">
<path d="M5.22949 66.6901L10.5695 55.0901C12.8195 63.0901 18.8095 67.0901 25.1995 64.9901C30.4295 63.2501 38.5595 51.9901 37.8395 46.7101C36.8395 39.1801 30.4695 38.1801 24.5695 36.8801L33.5695 24.5501L28.0396 16.8701L18.5095 3.7001C24.1795 7.6101 30.2995 11.0201 35.3795 15.5901C39.5895 19.3701 43.1595 20.0001 47.6695 17.0301C56.0095 20.7201 59.2895 19.1801 60.4195 11.0301L70.6295 8.2301C70.1595 9.3901 69.7695 10.6001 69.1995 11.7001C65.1995 19.4901 65.6995 25.3901 70.7495 29.3401C76.3095 33.6901 81.7495 32.6201 88.7495 26.2101C91.3178 23.835 94.1417 21.7523 97.1695 20.0001C102.999 16.6701 106.24 12.2101 104.97 5.25012L120.669 7.93011C118.669 10.0801 115.789 11.9301 114.669 14.4501C113.159 18.0301 111.369 22.8401 112.669 25.8701C113.969 28.9001 118.67 31.9901 122.24 32.5201C131.76 33.9301 139.64 26.7001 141.24 16.5201L146.609 19.5701L173.75 1.87012C170.083 6.05012 166.416 10.2268 162.75 14.4001C154.61 23.6501 154.63 25.0301 162.88 34.0101C164.74 36.0101 166.48 38.1501 168.27 40.2301L166.51 46.5901L172.93 46.2701L181.84 65.6301C178.52 62.4301 175.68 58.1401 171.71 56.3901C168.76 55.0901 163.79 56.1301 160.81 57.9301C158.81 59.1501 157.72 63.5901 157.95 66.4501C158.4 71.9201 167.44 78.1701 173.35 77.5501C180.48 76.8001 181.94 71.6601 181.81 65.5501C184.23 75.0501 186.646 84.5568 189.06 94.0701C184.75 85.7901 181.43 84.3601 174.65 88.1801C172.475 89.4131 170.494 90.9597 168.77 92.7701C165.19 96.5601 163.519 101.03 167.109 105.57C170.499 109.86 175.11 110.33 179.95 107.92L186.32 104.79C185.393 109.71 184.466 114.63 183.54 119.55C181.07 123.11 178.79 126.84 176.06 130.2C171.94 135.28 167.51 140.1 163.21 145.03L163.09 145.21L148.65 151.73C147.21 146.73 144.96 140.98 139.24 141.73C135.03 142.27 130.71 146.13 127.6 149.56C125.49 151.88 125.39 156.01 124.39 159.34L115.229 159.83C116.529 159.1 118.83 158.5 118.94 157.62C119.49 153.54 120.86 148.62 119.22 145.42C116.99 141.06 112.41 142.96 108.79 145.42C101.47 150.34 102.42 154.28 112.32 159.7L105.979 162.7V162.65L104.51 160.92C97.8695 154.11 95.2995 153.92 88.1095 159.43L79.6495 157.66C79.2595 148.12 74.6495 146.04 64.3695 150.71L57.4195 147.21C58.3595 141.7 59.4995 135.74 53.4195 132.65C48.6295 130.23 43.6895 131.35 39.9095 135.65L32.2195 127.52L36.6295 123.42C39.1095 119.27 42.3895 115.36 43.8195 110.87C44.8195 107.72 44.5795 102.7 42.6495 100.4C39.3395 96.4501 34.4795 96.8701 29.9095 100.13C26.9095 102.24 23.2695 103.39 19.9095 104.97C17.9095 99.4368 15.9328 93.9068 13.9795 88.3801C18.9595 80.7401 14.6995 70.1801 5.22949 66.6901ZM134.859 119.92L134.77 120.04L136.44 117.68C144.44 107.23 138.549 90.5801 124.359 89.5701C118.829 89.1801 113.17 90.6801 107.57 91.3201C105.08 83.7001 98.6295 85.3201 93.0495 85.2601C88.3395 85.2601 83.1195 84.8301 81.6595 91.2601C78.9895 90.6201 76.3595 89.7801 73.6595 89.3801C65.9095 88.2101 58.4895 89.0501 53.1095 95.3801C47.9695 101.46 47.2295 108.45 50.7395 115.73L54.7395 122.89L71.0495 129.32C74.6295 140.47 82.5095 146.09 94.5095 146.04C106.08 146.04 113.51 140.46 117.08 129.32C120 128.91 123.249 129.17 125.729 127.91C128.609 126.46 130.82 123.68 133.32 121.47L134 121L134.859 119.92ZM76.4395 79.7101L80.1695 76.1601C86.9395 64.6801 83.4495 51.8501 72.0195 46.2201C60.1295 40.3701 48.0195 45.2201 42.7395 58.0501C42.2595 61.6501 41.0895 65.3101 41.4195 68.8301C42.1895 76.9201 49.3495 84.1801 58.1195 85.9801C65.2695 87.4401 71.9995 86.7201 76.4095 79.7201L76.1695 79.2301L76.4395 79.7101ZM141.63 78.2901L145.1 74.6601C150.3 63.6601 147.21 52.4101 137.4 46.4801C127.78 40.6601 116.18 43.5301 109.16 53.4801C100.16 63.3601 107.24 80.4201 118.88 85.0401C127.25 88.3601 134.71 82.62 142 81C141.981 81.7217 141.053 83.8593 140.88 84.5601C139.01 89.7401 140.07 94.4001 145.12 96.4801C147.38 97.4101 152.48 96.3201 153.4 94.6001C155.22 91.2201 155.02 86.7601 155.66 82.7401C151.53 82.4901 147.41 82.2101 143.28 82.0101C142.554 82.0576 134.188 83.7621 133.5 84L141.54 78.5801L141.63 78.2901ZM160.51 110.87V111.04C158.26 111.04 155.99 110.87 153.75 111.04C146.47 111.67 141.35 116.63 140.89 123.32C140.41 130.32 144.39 135.63 151.6 137.51C161.02 139.96 174.78 130.51 175.71 120.9C176.26 115.27 173.71 111.72 168 110.9C165.507 110.715 163.004 110.705 160.51 110.87ZM153.07 50.5901C158.35 50.6501 161.98 47.1201 162.19 41.7401C162.43 35.1401 155.62 26.7401 149.63 27.0401C144.82 27.3001 139.869 28.5901 139.479 34.9101C139.019 41.7101 146.77 50.5301 153.02 50.6001L153.07 50.5901ZM110.72 32.7301C108.81 31.3901 105.8 27.7301 102.25 27.1101C95.8895 25.9801 88.1895 34.2601 88.1495 40.8901C88.1495 46.6701 92.3995 50.9501 97.9795 50.6901C104.309 50.3901 110.909 42.5501 110.669 32.7401L110.72 32.7301ZM64.1095 31.9301C64.2095 25.6901 60.7395 22.0601 54.6295 21.9801C47.9095 21.9001 41.3895 26.4601 41.1795 31.3801C40.9695 36.3001 47.3695 41.3801 53.9895 41.3801C59.9195 41.4401 63.9595 37.6501 64.0595 31.9401L64.1095 31.9301ZM41.4795 85.0901C41.4195 78.4701 37.8795 74.2901 31.9495 74.7901C27.0795 75.2001 23.2195 77.4201 22.7795 82.8601C22.3895 87.6701 29.0595 93.4001 34.5795 93.2201C39.4495 93.0701 41.7695 90.4601 41.4295 85.1001L41.4795 85.0901Z" fill="#E5B15A"/>
<path d="M115.2 159.87L124.36 159.38C129.49 168.48 136.77 169.49 143.67 161.56C145.99 158.89 147.01 155.08 148.67 151.79L163.11 145.27C160.54 147.94 158.02 150.66 155.39 153.27C148.76 159.79 148.13 164.75 152.98 172.99L142.87 179.87C138.87 174.59 133.79 175.51 128.87 177.81C124.37 179.92 121.17 183.24 122.87 188.94L104.72 192.55C103.12 187.89 100.35 184.87 94.9398 184.9C89.5298 184.93 86.7798 187.9 85.1398 192.59L78.1398 191.52C78.7074 190.698 79.3183 189.907 79.9698 189.15C83.9698 184.98 83.8798 180.73 80.0298 176.61C75.4298 171.7 64.7998 170.34 59.9198 173.95C54.7698 177.77 56.4198 182.04 59.2298 186.34L47.5098 180.74C51.3898 172.81 48.9898 164.83 40.9598 158.99C34.8998 154.58 28.0298 155.11 22.3298 160.42L13.0498 146.06C18.0498 149.06 23.3698 151.4 28.0498 146.19C32.5898 141.19 35.8698 135.46 31.0498 128.61L32.1198 127.52L39.8098 135.65C39.5201 137.639 39.3399 139.642 39.2698 141.65C39.3298 147.23 40.7699 152.57 46.5399 154.44C52.3099 156.31 54.6298 151.01 57.3398 147.23L64.2899 150.73C63.1399 152.35 61.2898 153.87 61.0198 155.62C60.5798 158.78 60.0198 162.85 61.6298 165.04C62.7398 166.57 67.8198 166.67 70.1998 165.51C73.7498 163.78 76.4898 160.37 79.5698 157.68L88.0298 159.45C87.5098 163.65 86.0298 168.03 86.7598 171.99C87.3698 175.25 90.2198 180.12 92.7598 180.59C98.5298 181.66 104.84 181.01 110.62 179.71C111.72 179.46 112.25 172.79 111.48 169.45C110.89 166.91 107.82 164.94 105.85 162.72L112.19 159.72L115.2 159.87Z" fill="#DA963B"/>
<path d="M104.96 5.25021C106.23 12.2502 102.96 16.6702 97.1599 20.0002C94.1321 21.7523 91.3081 23.8351 88.7399 26.2102C81.7399 32.6202 76.3399 33.6902 70.7399 29.3402C65.7399 25.3402 65.1899 19.4902 69.1899 11.7002C69.7599 10.6002 70.1899 9.39019 70.6199 8.23019C81.7799 3.56019 93.2499 3.04021 104.96 5.25021Z" fill="#1F170A"/>
<path d="M18.5097 3.69998L28.0097 16.87L33.5297 24.55L24.5297 36.88L16.5097 45.19C12.8997 38.19 8.74971 31.35 5.83971 24.04C2.68971 16.13 2.59968 7.97998 8.30968 0.72998L15.3897 2.42999L18.5797 3.69L18.5097 3.69998Z" fill="#DA963B"/>
<path d="M168.25 40.18C166.46 38.1 164.72 35.98 162.86 33.96C154.61 24.96 154.59 23.6 162.73 14.35C166.41 10.1833 170.076 6.00667 173.73 1.82001H173.84L175.74 0.699982L178.01 0L181.53 2.19998C188.04 13.2 184.29 23.47 179.27 33.53C177.38 37.3 174.59 40.63 172.21 44.16L168.25 40.18Z" fill="#DA963B"/>
<path d="M13.9898 88.3799L19.9298 104.96C14.3098 113.39 16.1098 118.88 25.6798 121.61C29.2198 122.61 32.9798 122.84 36.6798 123.42L32.2698 127.52L31.1998 128.61C28.7998 127.34 26.5198 125.72 23.9798 124.87C14.7198 121.78 9.60984 125.54 9.45984 135.27C9.45984 136.51 9.39981 137.76 9.36981 139C7.14981 133.413 4.92315 127.823 2.68982 122.23C8.94982 119.1 9.48981 113.09 8.36981 107.66C7.88981 105.33 3.15981 103.88 0.369812 102.02C0.259812 99.2999 0.159805 96.5699 0.0498047 93.8399C0.399805 96.6799 1.04984 98.7899 4.33984 95.9999C7.43984 93.3599 10.7498 90.8699 13.9898 88.3799Z" fill="#DA963B"/>
<path d="M9.33008 139C9.33008 137.76 9.40004 136.51 9.42004 135.27C9.57004 125.54 14.6801 121.78 23.9401 124.87C26.4801 125.72 28.7601 127.34 31.1601 128.61C35.9601 135.46 32.6801 141.18 28.1601 146.19C23.4301 151.4 18.1601 149.05 13.1601 146.06L9.33008 139Z" fill="#1F170A"/>
<path d="M141.21 16.4904C139.65 26.7004 131.77 33.9304 122.21 32.4904C118.63 31.9604 113.96 28.9404 112.64 25.8404C111.32 22.7404 113.15 18.0004 114.64 14.4204C115.72 11.8604 118.55 10.0504 120.64 7.90039L126.64 9.90039C125.2 12.6904 123.73 15.4704 122.35 18.2804C121.49 20.0404 120.76 21.8604 119.97 23.6504C122.39 23.4404 125.51 24.1104 127.1 22.8504C130.34 20.2804 132.75 16.6704 135.5 13.5004L141.21 16.4904Z" fill="#1F170A"/>
<path d="M186.29 104.87L179.92 108C175.05 110.41 170.47 109.94 167.08 105.65C163.49 101.11 165.16 96.6504 168.74 92.8504C170.464 91.04 172.445 89.4935 174.62 88.2604C181.4 84.4404 184.72 85.8704 189.03 94.1504L188.94 98.8904C188.033 100.89 187.117 102.91 186.19 104.95L186.29 104.87Z" fill="#1F170A"/>
<path d="M59.2396 186.32C56.4296 182.02 54.7796 177.75 59.9296 173.93C64.8096 170.32 75.4396 171.68 80.0396 176.59C83.8896 180.71 84.0396 184.96 79.9796 189.13C79.328 189.887 78.7172 190.678 78.1496 191.5H75.4396L59.2396 186.32Z" fill="#1F170A"/>
<path d="M16.5096 45.1899L24.6196 36.8799C30.5196 38.1799 36.8696 39.1799 37.8896 46.7099C38.6096 52.0199 30.4796 63.2499 25.2496 64.9899C18.8596 67.1299 12.8696 63.0699 10.6196 55.0899C12.5463 51.7899 14.5096 48.4899 16.5096 45.1899ZM34.8596 49.6099C30.0296 47.0499 26.7997 43.9899 24.9697 44.6799C21.8697 45.8299 19.1797 49.0799 17.3997 52.0799C16.9397 52.8599 21.3997 58.0799 22.0397 57.7399C25.8497 56.0499 29.2496 53.3299 34.8096 49.6099H34.8596Z" fill="#1F170A"/>
<path d="M13.99 88.3804C10.75 90.9104 7.44004 93.3804 4.29004 96.0004C0.960039 98.7904 0.35 96.6804 0 93.8404C1.74 84.8004 3.48331 75.7504 5.22998 66.6904C14.7 70.1804 18.96 80.7404 13.99 88.3804Z" fill="#1F170A"/>
<path d="M152.93 172.94C148.08 164.7 148.71 159.74 155.34 153.22C157.97 150.63 160.49 147.91 163.06 145.22C163.06 145.22 163.18 145.04 163.18 145.03L175.42 147.34L171.35 153.34C164.22 150.77 156.51 159.5 157.99 168.47L152.93 172.94Z" fill="#1F170A"/>
<path d="M22.3696 160.42C28.0696 155.11 34.9396 154.58 40.9996 158.99C48.9996 164.83 51.4296 172.81 47.5496 180.74L42.0197 177.33C42.9597 166.83 38.4096 163.03 26.2496 164.19L22.3696 160.42Z" fill="#1F170A"/>
<path d="M175.42 147.36L163.18 145.05C167.48 140.13 171.91 135.31 176.03 130.23C178.76 126.87 181.03 123.14 183.51 119.58L186.26 120.8C185.65 123.04 185.05 125.29 184.44 127.53C177.01 130.96 175.92 133.59 178.9 140.89L175.42 147.36Z" fill="#DA963B"/>
<path d="M122.869 188.92C121.169 183.22 124.369 179.92 128.869 177.79C133.789 175.49 138.869 174.57 142.869 179.85L122.869 188.92Z" fill="#1F170A"/>
<path d="M85.1396 192.57C86.7796 187.93 89.5596 184.91 94.9396 184.88C100.32 184.85 103.12 187.88 104.72 192.53L85.1396 192.57Z" fill="#694025"/>
<path d="M0.319824 102.02C3.11982 103.88 7.84982 105.33 8.31982 107.66C9.43982 113.09 8.89983 119.1 2.63983 122.23C1.8865 115.503 1.11316 108.767 0.319824 102.02Z" fill="#1F170A"/>
<path d="M135.51 13.5199C132.76 16.6899 130.349 20.2999 127.109 22.8699C125.519 24.1299 122.399 23.4599 119.979 23.6699C120.769 21.8799 121.499 20.0599 122.359 18.2999C123.739 15.4899 125.21 12.7099 126.65 9.91992L135.51 13.5199Z" fill="#E5B15A"/>
<path d="M26.25 164.19C38.41 163.03 42.96 166.83 42.02 177.33L26.25 164.19Z" fill="#DA963B"/>
<path d="M157.99 168.48C156.51 159.48 164.22 150.78 171.35 153.35C166.903 158.363 162.45 163.407 157.99 168.48Z" fill="#DA963B"/>
<path d="M186.26 120.8L183.51 119.58C184.436 114.66 185.363 109.74 186.29 104.82L186.19 104.9L188.92 105.14C188.033 110.36 187.146 115.58 186.26 120.8Z" fill="#3F3B3A"/>
<path d="M60.4497 11.0303C59.3197 19.1803 56.0397 20.7203 47.6997 17.0303L60.4497 11.0303Z" fill="#3F3B3A"/>
<path d="M178.9 140.87C175.9 133.57 177.01 130.94 184.44 127.51C182.593 131.977 180.746 136.43 178.9 140.87Z" fill="#252525"/>
<path d="M168.25 40.1802L172.25 44.1802L172.91 46.2502L166.5 46.5702L168.25 40.1802Z" fill="#252525"/>
<path d="M107.57 91.3201C113.17 90.6801 118.83 89.1801 124.36 89.5701C138.55 90.5701 144.36 107.23 136.44 117.68L134.77 120.04L134.86 119.92L133.27 121.48C123.32 127.57 113.34 126.48 103.58 121.23C94.7597 116.49 93.7897 109 100.33 101.65C103.11 98.5201 105.18 94.7801 107.57 91.3201Z" fill="#EBE9E5"/>
<path d="M50.7399 115.73C47.2299 108.45 47.9699 101.46 53.1099 95.38C58.4899 89.02 65.9099 88.18 73.6599 89.38C76.3599 89.78 78.9899 90.62 81.6599 91.27C83.8899 94.82 85.6599 98.82 88.4399 101.84C94.5799 108.47 94.4399 115.51 86.7399 120.23C77.0799 126.12 66.8399 128.46 56.4199 121.53C54.5099 119.58 52.6399 117.65 50.7399 115.73Z" fill="#EBE9E5"/>
<path d="M42.7397 58.0503C47.9997 45.2703 60.1298 40.3703 72.0198 46.2203C83.4498 51.8503 86.9397 64.6803 80.1697 76.1603L76.4398 79.7103L76.1697 79.2303C76.1697 79.2303 76.4098 79.7203 76.3998 79.7203C72.9098 79.5703 69.3997 79.3203 65.9297 79.2803C56.1397 79.2003 49.2498 74.4803 45.8698 65.5103C44.9298 62.9903 43.7897 60.5403 42.7397 58.0503ZM78.7397 66.5203C78.8297 65.4203 78.9298 64.3303 79.0298 63.2403C76.4698 61.2403 73.7297 57.5503 71.4197 57.8003C68.7397 58.0803 64.9697 61.5703 64.4197 64.2103C64.0297 66.1303 67.9198 70.5503 70.3398 70.9203C72.7598 71.2903 75.8998 68.1303 78.7198 66.5203H78.7397Z" fill="#FCFBFA"/>
<path d="M109.159 53.4703C116.159 43.5303 127.779 40.6603 137.399 46.4703C147.209 52.4003 150.299 63.6903 145.099 74.6503L141.629 78.2803C141.602 78.3724 141.569 78.4626 141.529 78.5503C139.612 78.738 137.683 78.7815 135.759 78.6803C130.239 78.0203 124.299 78.2203 119.329 76.1503C109.389 72.0303 108.409 62.8703 109.159 53.4703ZM119.159 72.2403L122.319 72.2903C124.059 69.5203 127.229 66.7003 127.119 64.0103C127.029 61.6303 122.859 57.2303 121.259 57.5603C118.439 58.1303 114.589 61.3803 114.259 63.9503C113.929 66.5203 117.349 69.4503 119.159 72.2403Z" fill="#FCFBFA"/>
<path d="M117.04 129.32C113.51 140.46 106.04 145.99 94.4696 146.04C82.4696 146.09 74.6296 140.47 71.0596 129.32C80.3296 127.96 88.8996 125.21 94.6796 116.93C99.8996 125.74 108.51 127.45 117.04 129.32Z" fill="#DFDBD8"/>
<path d="M160.51 110.87C163.005 110.715 165.507 110.735 168 110.93C173.66 111.75 176.26 115.3 175.71 120.93C174.78 130.58 161.02 139.99 151.6 137.54C144.39 135.66 140.41 130.39 140.89 123.35C141.35 116.66 146.47 111.7 153.75 111.07C155.99 110.87 158.26 111.07 160.51 111.07V110.87Z" fill="#060707"/>
<path d="M117.04 129.32C108.52 127.45 99.8997 125.74 94.6797 116.93C88.8997 125.21 80.3298 127.93 71.0598 129.32L54.7397 122.87L56.4197 121.48C66.8397 128.41 77.0797 126.07 86.7397 120.18C94.4797 115.46 94.5798 108.42 88.4398 101.79C85.6398 98.79 83.8898 94.79 81.6598 91.22C83.1198 84.81 88.3397 85.22 93.0497 85.22C98.6297 85.22 105.05 83.66 107.57 91.28C105.18 94.74 103.11 98.48 100.34 101.6C93.7998 108.95 94.7698 116.44 103.59 121.18C113.35 126.42 123.33 127.52 133.28 121.43C130.78 123.64 128.57 126.43 125.69 127.87C123.21 129.17 119.96 128.87 117.04 129.32Z" fill="#1B1B1B"/>
<path d="M153.02 50.5999C146.77 50.5299 139.02 41.7099 139.43 34.9199C139.82 28.5999 144.77 27.3099 149.58 27.0499C155.58 26.7299 162.38 35.1499 162.14 41.7499C161.93 47.1299 158.3 50.6599 153.02 50.5999Z" fill="#1F170A"/>
<path d="M105.95 162.7C107.95 164.92 110.95 166.89 111.58 169.43C112.35 172.77 111.82 179.43 110.72 179.69C104.94 180.99 98.6296 181.64 92.8596 180.57C90.3296 180.1 87.4796 175.23 86.8596 171.97C86.1296 167.97 87.6097 163.63 88.1297 159.43C95.3197 153.87 97.8897 154.11 104.53 160.92C105.01 161.5 105.53 162.08 105.99 162.65L105.95 162.7ZM92.0897 166.63C92.2597 169.63 91.8496 171.63 92.4796 172.07C95.3296 174.07 98.3197 176.07 101.57 177.07C103.1 177.53 105.33 175.64 107.24 174.82C105.83 172.68 104.47 170.52 103 168.43C102.298 167.399 101.475 166.456 100.55 165.62C98.7896 164.1 96.8997 162.72 95.0697 161.29L92.0897 166.63Z" fill="#1F170A"/>
<path d="M36.6396 123.42C32.9796 122.84 29.2196 122.62 25.6396 121.61C16.0696 118.88 14.2696 113.39 19.8896 104.96C23.2396 103.39 26.8896 102.24 29.8896 100.13C34.4596 96.8701 39.3195 96.4501 42.6295 100.4C44.5595 102.7 44.7995 107.72 43.7995 110.87C42.3995 115.36 39.1196 119.27 36.6396 123.42ZM32.8695 118.42C34.5795 116.21 37.0896 113.82 38.4496 110.91C39.3196 109.04 38.4496 106.39 38.4496 104.09C34.4496 105.49 30.3695 106.68 26.4995 108.38C24.792 109.23 23.3805 110.575 22.4496 112.24C22.1496 112.76 23.6596 114.91 24.7796 115.54C26.6696 116.59 28.9295 117.06 32.8695 118.4V118.42Z" fill="#1F170A"/>
<path d="M110.67 32.74C110.91 42.55 104.31 50.39 97.9298 50.74C92.3498 51 88.0599 46.74 88.0999 40.94C88.0999 34.31 95.8399 26.03 102.2 27.16C105.75 27.75 108.76 31.4 110.67 32.74ZM104.25 35.6099L101.78 33.77C96.6199 34.22 95.4999 37.77 98.0999 43.99L104.25 35.6099Z" fill="#1F170A"/>
<path d="M148.62 151.76C147.01 155.05 145.99 158.86 143.62 161.53C136.72 169.46 129.44 168.45 124.31 159.35C125.31 156.02 125.41 151.89 127.52 149.57C130.63 146.14 134.95 142.28 139.16 141.74C144.93 141.01 147.18 146.73 148.62 151.76ZM133.11 161.52C136.35 158.85 139.25 156.99 141.34 154.46C142.18 153.46 141.77 150.64 140.92 149.26C140.41 148.43 137.32 148.02 136.51 148.72C133.21 151.57 129.59 154.65 133.11 161.52Z" fill="#1F170A"/>
<path d="M181.78 65.5803C181.91 71.6603 180.45 76.8003 173.32 77.5803C167.41 78.2003 158.37 71.9503 157.92 66.4803C157.69 63.6203 158.77 59.1803 160.78 57.9603C163.78 56.1603 168.78 55.1203 171.68 56.4203C175.68 58.1703 178.49 62.4203 181.81 65.6603L181.78 65.5803ZM166.22 62.7803L164.28 65.0403L173.92 71.7003C175.05 62.8703 170.51 62.9303 166.22 62.7803V62.7803Z" fill="#1F170A"/>
<path d="M109.16 53.4702C108.41 62.9102 109.39 72.0302 119.33 76.1602C124.33 78.2302 130.24 78.0302 135.76 78.6902C137.684 78.7914 140.583 77.6877 142.5 77.5C142 78.5 142 79 140 81C133 84 127.23 88.3702 118.86 85.0502C107.24 80.4102 100.18 63.3502 109.16 53.4702Z" fill="#EBE9E5"/>
<path d="M42.7396 58.0503C43.7396 60.5403 44.9296 62.9903 45.8696 65.5103C49.2496 74.5103 56.1396 79.2003 65.9296 79.2803C69.4196 79.2803 72.9296 79.5703 76.3996 79.7203C71.9996 86.7203 65.2696 87.4403 58.1196 85.9803C49.3496 84.1803 42.1896 76.9203 41.4196 68.8303C41.0896 65.3103 42.2596 61.6503 42.7396 58.0503Z" fill="#EBE9E5"/>
<path d="M79.6798 157.66C76.5998 160.35 73.8598 163.76 70.3098 165.49C67.9298 166.65 62.8498 166.55 61.7398 165.02C60.1498 162.83 60.6898 158.76 61.1298 155.6C61.3698 153.85 63.2498 152.33 64.3998 150.71C74.7198 146.04 79.2898 148.12 79.6798 157.66Z" fill="#1F170A"/>
<path d="M64.0596 31.9404C63.9596 37.6504 59.9196 41.4403 53.9396 41.4303C47.3196 41.4303 40.9396 36.4303 41.1296 31.4303C41.3196 26.4303 47.8596 21.9504 54.5796 22.0304C60.6896 22.0704 64.1596 25.7004 64.0596 31.9404ZM60.0596 26.7804L45.3196 30.3303C52.7496 37.8703 56.7597 37.1104 60.0297 26.7804H60.0596Z" fill="#1F170A"/>
<path d="M41.4297 85.1002C41.7697 90.4602 39.4298 93.1002 34.5298 93.2302C29.0098 93.4102 22.3397 87.6802 22.7297 82.8702C23.1697 77.4302 27.0298 75.2102 31.8998 74.8002C37.8298 74.3002 41.3697 78.4802 41.4297 85.1002Z" fill="#1F170A"/>
<path d="M57.4499 147.21C54.7399 150.99 52.5599 156.34 46.6499 154.42C40.7399 152.5 39.4399 147.21 39.3799 141.63C39.4499 139.622 39.6302 137.619 39.9199 135.63C43.6999 131.33 48.6399 130.21 53.4299 132.63C59.5099 135.74 58.3899 141.7 57.4499 147.21ZM46.2699 150.78C54.9699 142.78 54.6899 140.34 44.5299 134.41C45.1599 140.32 45.6199 144.6 46.2699 150.78V150.78Z" fill="#1F170A"/>
<path d="M141.15 82.43C141.838 82.1921 142.554 82.0475 143.28 82C147.41 82.2 151.53 82.48 155.66 82.73C155.02 86.73 155.22 91.21 153.4 94.59C152.48 96.31 147.4 97.4 145.12 96.47C140.07 94.39 139.01 89.73 140.88 84.55C141.054 83.8492 141.151 83.1317 141.17 82.41L141.15 82.43Z" fill="#1F170A"/>
<path d="M115.2 159.87L112.29 159.72C102.39 154.3 101.44 150.36 108.76 145.44C112.38 143 116.96 141.1 119.19 145.44C120.83 148.65 119.46 153.56 118.91 157.64C118.8 158.51 116.51 159.11 115.2 159.87Z" fill="#1F170A"/>
<path d="M34.8098 49.6099C29.2498 53.3299 25.8098 56.0499 21.9898 57.7399C21.3198 58.0299 16.8898 52.8599 17.3498 52.0799C19.1298 49.0799 21.8198 45.8299 24.9198 44.6799C26.7498 43.9899 29.9798 47.0499 34.8098 49.6099Z" fill="#E5B15A"/>
<path d="M92.0898 166.63L95.0898 161.28C96.9198 162.71 98.8098 164.09 100.57 165.61C101.496 166.446 102.318 167.389 103.02 168.42C104.49 170.51 105.85 172.67 107.26 174.81C105.35 175.63 103.12 177.52 101.59 177.06C98.3398 176.06 95.3498 174.06 92.4998 172.06C91.8498 171.63 92.2598 169.68 92.0898 166.63Z" fill="#DA963B"/>
<path d="M32.8698 118.4C28.9298 117.06 26.6698 116.59 24.7598 115.52C23.6398 114.89 22.1298 112.74 22.4298 112.22C23.3607 110.556 24.7722 109.21 26.4798 108.36C30.3498 106.66 34.4798 105.47 38.4298 104.07C38.4998 106.37 39.3198 109.02 38.4298 110.89C37.0898 113.8 34.5798 116.19 32.8698 118.4Z" fill="#E5B15A"/>
<path d="M104.25 35.61L98.0995 43.99C95.4995 37.72 96.6195 34.22 101.78 33.77L104.25 35.61Z" fill="#E5B15A"/>
<path d="M133.11 161.52C129.59 154.65 133.21 151.57 136.51 148.72C137.32 148.02 140.41 148.43 140.92 149.26C141.77 150.64 142.18 153.44 141.34 154.46C139.25 156.99 136.35 158.87 133.11 161.52Z" fill="#DA963B"/>
<path d="M166.22 62.7803C170.53 62.9303 175.05 62.7803 173.92 71.7003L164.28 65.0403L166.22 62.7803Z" fill="#E5B15A"/>
<path d="M60.03 26.7803C56.76 37.1103 52.75 37.9103 45.29 30.3303L60.03 26.7803Z" fill="#E5B15A"/>
<path d="M46.2698 150.78C45.6198 144.6 45.1598 140.32 44.5298 134.41C54.6898 140.34 54.9698 142.76 46.2698 150.78Z" fill="#DA963B"/>
<circle cx="71.5" cy="64.5" r="10.5" fill="#FCFBFA"/>
<circle cx="123.5" cy="64.5" r="10.5" fill="#FCFBFA"/>
<circle cx="70.5" cy="64.5" r="7.5" fill="#1B1B1B"/>
<circle cx="119.5" cy="64.5" r="7.5" fill="#1B1B1B"/>
<circle cx="73" cy="63" r="2" fill="#EBE9E5"/>
<circle cx="122" cy="63" r="2" fill="#EBE9E5"/>
</svg>
