<svg width="319" height="110" viewBox="0 0 319 110" fill="none" xmlns="http://www.w3.org/2000/svg">
<path d="M117.639 0.0987633C119.421 0.0987633 120.781 0.651273 121.719 1.75629C122.75 2.76922 123.266 4.1505 123.266 5.90011V93.3347C123.266 94.9922 122.797 96.3274 121.859 97.3404C120.922 98.3533 119.609 98.8598 117.921 98.8598C116.233 98.8598 114.967 98.3533 114.123 97.3404C113.279 96.3274 112.857 94.9922 112.857 93.3347V22.7516L82.3327 80.2126C81.0199 82.883 79.0975 84.2183 76.5655 84.2183C74.1274 84.2183 72.2049 82.883 70.7983 80.2126L40.1336 23.4423V93.3347C40.1336 94.9922 39.6647 96.3274 38.727 97.3404C37.883 98.3533 36.617 98.8598 34.929 98.8598C33.2411 98.8598 31.9282 98.3533 30.9905 97.3404C30.0527 96.3274 29.5838 94.9922 29.5838 93.3347V5.90011C29.5838 4.1505 30.0996 2.76922 31.1311 1.75629C32.1627 0.651273 33.5693 0.0987633 35.351 0.0987633C37.6954 0.0987633 39.5709 1.43399 40.9776 4.10445L76.7062 71.3724L112.013 4.10445C112.763 2.6311 113.56 1.61817 114.404 1.06566C115.342 0.421061 116.42 0.0987633 117.639 0.0987633Z" fill="#4D4D4D"/>
<path d="M159.871 90.9194C160.542 90.9194 161.074 91.1762 161.468 91.6897C161.902 92.2033 162.119 92.8946 162.119 93.7637C162.119 94.9883 161.39 96.0154 159.93 96.845C158.589 97.5956 157.07 98.2079 155.374 98.682C153.678 99.1165 152.061 99.3338 150.522 99.3338C145.868 99.3338 142.18 97.9907 139.458 95.3044C136.736 92.6181 135.376 88.9442 135.376 84.2826C135.376 81.3198 135.967 78.6928 137.151 76.4015C138.334 74.1103 139.991 72.3326 142.121 71.0684C144.29 69.8043 146.736 69.1722 149.457 69.1722C152.061 69.1722 154.329 69.745 156.262 70.8906C158.195 72.0363 159.693 73.656 160.758 75.7497C161.823 77.8434 162.356 80.3124 162.356 83.1568C162.356 84.8554 161.607 85.7048 160.108 85.7048H142.653C142.89 88.4306 143.659 90.4453 144.961 91.749C146.262 93.0131 148.156 93.6452 150.641 93.6452C151.903 93.6452 153.008 93.4872 153.954 93.1711C154.94 92.8551 156.045 92.4205 157.268 91.8675C158.451 91.2354 159.319 90.9194 159.871 90.9194ZM149.635 74.3868C147.623 74.3868 146.006 75.0189 144.783 76.283C143.6 77.5471 142.89 79.3643 142.653 81.7346H156.025C155.946 79.3248 155.354 77.5076 154.25 76.283C153.146 75.0189 151.607 74.3868 149.635 74.3868Z" fill="#4D4D4D"/>
<path d="M178.879 99.3338C174.579 99.3338 171.108 98.4845 168.465 96.7858C167.203 96.0352 166.572 94.9686 166.572 93.5859C166.572 92.7958 166.789 92.1638 167.223 91.6897C167.656 91.1762 168.189 90.9194 168.82 90.9194C169.491 90.9194 170.418 91.2354 171.601 91.8675C172.863 92.46 174.007 92.9144 175.033 93.2304C176.098 93.5464 177.439 93.7044 179.056 93.7044C180.713 93.7044 181.995 93.4279 182.902 92.8748C183.849 92.3218 184.322 91.5514 184.322 90.5638C184.322 89.8923 184.125 89.359 183.73 88.9639C183.375 88.5689 182.705 88.2133 181.719 87.8973C180.772 87.5418 179.312 87.1467 177.34 86.7122C173.83 86.0011 171.305 84.9937 169.767 83.6901C168.268 82.3864 167.518 80.589 167.518 78.2977C167.518 76.5595 168.031 74.9991 169.057 73.6164C170.082 72.1943 171.483 71.1079 173.258 70.3573C175.072 69.5672 177.123 69.1722 179.411 69.1722C181.068 69.1722 182.665 69.3895 184.204 69.824C185.742 70.2191 187.123 70.8116 188.345 71.6017C189.608 72.3918 190.239 73.4387 190.239 74.7423C190.239 75.5324 190.022 76.204 189.588 76.757C189.154 77.2706 188.621 77.5274 187.99 77.5274C187.556 77.5274 187.123 77.4484 186.689 77.2904C186.294 77.0928 185.781 76.8163 185.15 76.4608C184.006 75.8682 183.02 75.4336 182.192 75.1571C181.364 74.8411 180.338 74.6831 179.115 74.6831C177.656 74.6831 176.492 74.9794 175.624 75.5719C174.796 76.1645 174.382 76.9743 174.382 78.0014C174.382 78.989 174.816 79.7396 175.684 80.2532C176.551 80.7667 178.228 81.2803 180.713 81.7939C183.356 82.3469 185.426 82.979 186.925 83.6901C188.424 84.4011 189.489 85.29 190.12 86.3566C190.791 87.4232 191.126 88.7861 191.126 90.4453C191.126 93.1316 190.002 95.2846 187.754 96.9043C185.545 98.524 182.586 99.3338 178.879 99.3338Z" fill="#4D4D4D"/>
<path d="M207.596 99.3338C203.296 99.3338 199.825 98.4845 197.182 96.7858C195.92 96.0352 195.289 94.9686 195.289 93.5859C195.289 92.7958 195.506 92.1638 195.94 91.6897C196.374 91.1762 196.906 90.9194 197.537 90.9194C198.208 90.9194 199.135 91.2354 200.318 91.8675C201.58 92.46 202.724 92.9144 203.75 93.2304C204.815 93.5464 206.156 93.7044 207.773 93.7044C209.43 93.7044 210.712 93.4279 211.619 92.8748C212.566 92.3218 213.039 91.5514 213.039 90.5638C213.039 89.8923 212.842 89.359 212.447 88.9639C212.092 88.5689 211.422 88.2133 210.436 87.8973C209.489 87.5418 208.03 87.1467 206.057 86.7122C202.547 86.0011 200.022 84.9937 198.484 83.6901C196.985 82.3864 196.235 80.589 196.235 78.2977C196.235 76.5595 196.748 74.9991 197.774 73.6164C198.799 72.1943 200.2 71.1079 201.975 70.3573C203.789 69.5672 205.84 69.1722 208.128 69.1722C209.785 69.1722 211.382 69.3895 212.921 69.824C214.459 70.2191 215.84 70.8116 217.062 71.6017C218.325 72.3918 218.956 73.4387 218.956 74.7423C218.956 75.5324 218.739 76.204 218.305 76.757C217.871 77.2706 217.339 77.5274 216.707 77.5274C216.274 77.5274 215.84 77.4484 215.406 77.2904C215.011 77.0928 214.499 76.8163 213.867 76.4608C212.724 75.8682 211.737 75.4336 210.909 75.1571C210.081 74.8411 209.055 74.6831 207.832 74.6831C206.373 74.6831 205.209 74.9794 204.341 75.5719C203.513 76.1645 203.099 76.9743 203.099 78.0014C203.099 78.989 203.533 79.7396 204.401 80.2532C205.268 80.7667 206.945 81.2803 209.43 81.7939C212.073 82.3469 214.144 82.979 215.642 83.6901C217.141 84.4011 218.206 85.29 218.838 86.3566C219.508 87.4232 219.843 88.7861 219.843 90.4453C219.843 93.1316 218.719 95.2846 216.471 96.9043C214.262 98.524 211.303 99.3338 207.596 99.3338Z" fill="#4D4D4D"/>
<path d="M238.384 69.1722C242.407 69.1722 245.385 70.1796 247.318 72.1943C249.29 74.1695 250.276 77.1916 250.276 81.2605V95.7192C250.276 96.7858 249.961 97.6351 249.33 98.2672C248.699 98.8598 247.831 99.156 246.726 99.156C245.701 99.156 244.853 98.84 244.182 98.2079C243.551 97.5759 243.235 96.7463 243.235 95.7192V94.4155C242.565 95.9562 241.5 97.1611 240.04 98.0302C238.62 98.8993 236.964 99.3338 235.07 99.3338C233.137 99.3338 231.382 98.9388 229.804 98.1487C228.227 97.3586 226.984 96.2722 226.077 94.8896C225.17 93.5069 224.716 91.9662 224.716 90.2676C224.716 88.1343 225.248 86.4554 226.313 85.2307C227.418 84.0061 229.193 83.1173 231.639 82.5642C234.084 82.0111 237.457 81.7346 241.756 81.7346H243.235V80.3717C243.235 78.436 242.821 77.0336 241.993 76.1645C241.165 75.2559 239.823 74.8016 237.969 74.8016C236.826 74.8016 235.662 74.9794 234.479 75.3349C233.295 75.6509 231.895 76.125 230.278 76.757C229.252 77.2706 228.503 77.5274 228.029 77.5274C227.319 77.5274 226.728 77.2706 226.254 76.757C225.82 76.2435 225.603 75.5719 225.603 74.7423C225.603 74.0707 225.761 73.4979 226.077 73.0239C226.432 72.5103 227.004 72.0363 227.793 71.6017C229.173 70.8511 230.81 70.2586 232.704 69.824C234.636 69.3895 236.53 69.1722 238.384 69.1722ZM236.549 94.0007C238.522 94.0007 240.119 93.3489 241.342 92.0453C242.604 90.7021 243.235 88.9837 243.235 86.8899V85.6455H242.17C239.528 85.6455 237.476 85.7641 236.017 86.0011C234.557 86.2381 233.512 86.6529 232.881 87.2455C232.25 87.838 231.934 88.6479 231.934 89.675C231.934 90.9391 232.368 91.986 233.236 92.8156C234.143 93.6057 235.248 94.0007 236.549 94.0007Z" fill="#4D4D4D"/>
<path d="M282.288 69.2907C283.393 69.2907 284.28 69.6067 284.951 70.2388C285.621 70.8709 285.957 71.7202 285.957 72.7869V96.1932C285.957 100.736 284.694 104.173 282.17 106.504C279.646 108.835 275.918 110 270.987 110C266.688 110 263.098 109.19 260.219 107.57C258.759 106.701 258.03 105.655 258.03 104.43C258.03 103.561 258.227 102.869 258.621 102.356C259.055 101.842 259.607 101.586 260.278 101.586C260.633 101.586 261.067 101.665 261.58 101.823C262.092 102.02 262.625 102.237 263.177 102.474C264.597 103.067 265.859 103.521 266.964 103.837C268.108 104.153 269.41 104.311 270.869 104.311C276.036 104.311 278.62 101.783 278.62 96.7265V92.9341C277.752 94.5538 276.49 95.8179 274.833 96.7265C273.177 97.5956 271.283 98.0302 269.153 98.0302C266.629 98.0302 264.38 97.4376 262.408 96.2525C260.475 95.0278 258.957 93.3291 257.852 91.1564C256.748 88.9837 256.195 86.4751 256.195 83.6308C256.195 80.7865 256.728 78.278 257.793 76.1052C258.897 73.893 260.436 72.1943 262.408 71.0092C264.38 69.7845 266.629 69.1722 269.153 69.1722C271.283 69.1722 273.177 69.6265 274.833 70.5351C276.49 71.4042 277.752 72.6486 278.62 74.2683V72.7276C278.62 71.7005 278.955 70.8709 279.626 70.2388C280.296 69.6067 281.184 69.2907 282.288 69.2907ZM271.106 92.2823C273.472 92.2823 275.307 91.5119 276.608 89.9713C277.949 88.4306 278.62 86.3171 278.62 83.6308C278.62 80.905 277.949 78.7718 276.608 77.2311C275.307 75.6904 273.472 74.9201 271.106 74.9201C268.778 74.9201 266.944 75.6904 265.603 77.2311C264.262 78.7718 263.591 80.905 263.591 83.6308C263.591 86.3171 264.262 88.4306 265.603 89.9713C266.944 91.5119 268.778 92.2823 271.106 92.2823Z" fill="#4D4D4D"/>
<path d="M316.515 90.9194C317.186 90.9194 317.718 91.1762 318.112 91.6897C318.546 92.2033 318.763 92.8946 318.763 93.7637C318.763 94.9883 318.034 96.0154 316.574 96.845C315.233 97.5956 313.714 98.2079 312.018 98.682C310.322 99.1165 308.705 99.3338 307.166 99.3338C302.512 99.3338 298.824 97.9907 296.102 95.3044C293.38 92.6181 292.02 88.9442 292.02 84.2826C292.02 81.3198 292.611 78.6928 293.795 76.4015C294.978 74.1103 296.635 72.3326 298.765 71.0684C300.934 69.8043 303.38 69.1722 306.101 69.1722C308.705 69.1722 310.973 69.745 312.906 70.8906C314.839 72.0363 316.337 73.656 317.402 75.7497C318.468 77.8434 319 80.3124 319 83.1568C319 84.8554 318.251 85.7048 316.752 85.7048H299.297C299.534 88.4306 300.303 90.4453 301.605 91.749C302.906 93.0131 304.8 93.6452 307.285 93.6452C308.547 93.6452 309.652 93.4872 310.598 93.1711C311.584 92.8551 312.689 92.4205 313.912 91.8675C315.095 91.2354 315.963 90.9194 316.515 90.9194ZM306.279 74.3868C304.267 74.3868 302.65 75.0189 301.427 76.283C300.244 77.5471 299.534 79.3643 299.297 81.7346H312.669C312.59 79.3248 311.999 77.5076 310.894 76.283C309.79 75.0189 308.251 74.3868 306.279 74.3868Z" fill="#4D4D4D"/>
<path d="M159.871 34.1318C160.542 34.1318 161.074 34.3886 161.468 34.9021C161.902 35.4157 162.119 36.107 162.119 36.9761C162.119 38.2008 161.39 39.2279 159.93 40.0575C158.589 40.808 157.07 41.4204 155.374 41.8944C153.678 42.329 152.061 42.5462 150.522 42.5462C145.868 42.5462 142.18 41.2031 139.458 38.5168C136.736 35.8305 135.376 32.1566 135.376 27.4951C135.376 24.5322 135.967 21.9052 137.151 19.6139C138.334 17.3227 139.991 15.545 142.121 14.2808C144.29 13.0167 146.736 12.3846 149.457 12.3846C152.061 12.3846 154.329 12.9574 156.262 14.1031C158.195 15.2487 159.693 16.8684 160.758 18.9621C161.823 21.0558 162.356 23.5249 162.356 26.3692C162.356 28.0679 161.607 28.9172 160.108 28.9172H142.653C142.89 31.643 143.659 33.6577 144.961 34.9614C146.262 36.2255 148.156 36.8576 150.641 36.8576C151.903 36.8576 153.008 36.6996 153.954 36.3836C154.94 36.0675 156.045 35.633 157.268 35.0799C158.451 34.4478 159.319 34.1318 159.871 34.1318ZM149.635 17.5992C147.623 17.5992 146.006 18.2313 144.783 19.4954C143.6 20.7596 142.89 22.5768 142.653 24.947H156.025C155.946 22.5373 155.354 20.7201 154.25 19.4954C153.146 18.2313 151.607 17.5992 149.635 17.5992Z" fill="#4D4D4D"/>
<path d="M172.074 42.4277C171.009 42.4277 170.122 42.1314 169.412 41.5389C168.741 40.9068 168.406 40.018 168.406 38.8723V3.49614C168.406 2.35051 168.741 1.48142 169.412 0.888848C170.122 0.296283 171.009 0 172.074 0C173.139 0 174.027 0.296283 174.737 0.888848C175.447 1.48142 175.802 2.35051 175.802 3.49614V38.8723C175.802 40.018 175.447 40.9068 174.737 41.5389C174.027 42.1314 173.139 42.4277 172.074 42.4277Z" fill="#4D4D4D"/>
<path d="M196.623 42.5462C193.665 42.5462 191.062 41.9339 188.813 40.7093C186.604 39.4846 184.888 37.7267 183.666 35.4354C182.443 33.1442 181.831 30.4776 181.831 27.4358C181.831 24.394 182.443 21.7472 183.666 19.4954C184.888 17.2042 186.604 15.4462 188.813 14.2216C191.062 12.9969 193.665 12.3846 196.623 12.3846C199.582 12.3846 202.165 12.9969 204.374 14.2216C206.623 15.4462 208.338 17.2042 209.522 19.4954C210.745 21.7472 211.356 24.394 211.356 27.4358C211.356 30.4776 210.745 33.1442 209.522 35.4354C208.338 37.7267 206.623 39.4846 204.374 40.7093C202.165 41.9339 199.582 42.5462 196.623 42.5462ZM196.564 36.7984C198.97 36.7984 200.804 36.0083 202.067 34.4281C203.329 32.8479 203.96 30.5171 203.96 27.4358C203.96 24.394 203.329 22.083 202.067 20.5028C200.804 18.8831 198.99 18.0733 196.623 18.0733C194.257 18.0733 192.422 18.8831 191.121 20.5028C189.858 22.083 189.227 24.394 189.227 27.4358C189.227 30.5171 189.858 32.8479 191.121 34.4281C192.383 36.0083 194.197 36.7984 196.564 36.7984Z" fill="#4D4D4D"/>
<path d="M241.602 0C242.707 0 243.614 0.316036 244.324 0.948107C245.034 1.58018 245.389 2.40977 245.389 3.43688V38.8723C245.389 39.9389 245.054 40.7883 244.383 41.4204C243.713 42.0524 242.825 42.3685 241.721 42.3685C240.616 42.3685 239.729 42.0524 239.058 41.4204C238.387 40.7883 238.052 39.9389 238.052 38.8723V37.3909C237.184 39.0106 235.922 40.2747 234.265 41.1833C232.648 42.0919 230.794 42.5462 228.704 42.5462C226.219 42.5462 223.99 41.9142 222.018 40.65C220.085 39.3859 218.566 37.6082 217.462 35.3169C216.397 32.9862 215.864 30.3196 215.864 27.3173C215.864 24.315 216.397 21.6879 217.462 19.4362C218.566 17.1844 220.085 15.4462 222.018 14.2216C223.951 12.9969 226.179 12.3846 228.704 12.3846C230.794 12.3846 232.648 12.8192 234.265 13.6883C235.883 14.5574 237.125 15.782 237.993 17.3622V3.31837C237.993 2.33076 238.309 1.54067 238.94 0.948107C239.61 0.316036 240.498 0 241.602 0ZM230.656 36.7984C233.023 36.7984 234.837 35.9885 236.1 34.3688C237.401 32.7491 238.052 30.4381 238.052 27.4358C238.052 24.4335 237.401 22.1422 236.1 20.562C234.837 18.9424 233.043 18.1325 230.715 18.1325C228.349 18.1325 226.515 18.9226 225.213 20.5028C223.911 22.083 223.26 24.3545 223.26 27.3173C223.26 30.3196 223.911 32.6504 225.213 34.3096C226.515 35.9688 228.329 36.7984 230.656 36.7984Z" fill="#4D4D4D"/>
<path d="M273.173 14.6364C273.489 13.9253 273.903 13.4117 274.416 13.0957C274.968 12.7402 275.56 12.5624 276.191 12.5624C277.098 12.5624 277.907 12.8784 278.617 13.5105C279.366 14.1031 279.741 14.8537 279.741 15.7623C279.741 16.1968 279.623 16.6511 279.386 17.1252L263.233 51.0199C262.563 52.3631 261.517 53.0347 260.097 53.0347C259.19 53.0347 258.381 52.7384 257.671 52.1458C257.001 51.5927 256.666 50.8817 256.666 50.0126C256.666 49.578 256.784 49.0842 257.021 48.5312L261.044 40.0575L250.039 17.1252C249.842 16.7301 249.743 16.2758 249.743 15.7623C249.743 14.8537 250.118 14.0833 250.867 13.4512C251.656 12.8192 252.544 12.5031 253.53 12.5031C254.2 12.5031 254.812 12.6809 255.364 13.0365C255.916 13.3525 256.35 13.866 256.666 14.5771L264.949 32.8874L273.173 14.6364Z" fill="#4D4D4D"/>
<path d="M39.4451 96.3907C39.4451 103.209 30.615 108.736 19.7225 108.736C8.83008 108.736 0 103.209 0 96.3907C0 89.5727 8.83008 84.0456 19.7225 84.0456C30.615 84.0456 39.4451 89.5727 39.4451 96.3907Z" fill="#4D4D4D"/>
</svg>
