<svg width="383" height="132" viewBox="0 0 383 132" fill="none" xmlns="http://www.w3.org/2000/svg">
<path d="M141.241 0.895396C143.38 0.895396 145.013 1.5545 146.139 2.87272C147.377 4.08107 147.996 5.72883 147.996 7.816V112.119C147.996 114.097 147.433 115.69 146.308 116.898C145.182 118.106 143.605 118.71 141.579 118.71C139.552 118.71 138.032 118.106 137.019 116.898C136.006 115.69 135.499 114.097 135.499 112.119V27.9187L98.8509 96.4656C97.2746 99.6513 94.9666 101.244 91.9266 101.244C88.9993 101.244 86.6912 99.6513 85.0024 96.4656L48.1855 28.7426V112.119C48.1855 114.097 47.6225 115.69 46.4966 116.898C45.4833 118.106 43.9634 118.71 41.9367 118.71C39.9101 118.71 38.3339 118.106 37.208 116.898C36.0821 115.69 35.5191 114.097 35.5191 112.119V7.816C35.5191 5.72883 36.1384 4.08107 37.3769 2.87272C38.6153 1.5545 40.3042 0.895396 42.4434 0.895396C45.2581 0.895396 47.5099 2.48823 49.1988 5.67391L92.0955 85.92L134.486 5.67391C135.386 3.91629 136.343 2.70794 137.357 2.04883C138.483 1.27988 139.777 0.895396 141.241 0.895396Z" fill="#F0F8FF"/>
<path d="M191.945 109.238C192.75 109.238 193.39 109.544 193.863 110.157C194.384 110.77 194.645 111.594 194.645 112.631C194.645 114.092 193.769 115.317 192.016 116.307C190.406 117.202 188.583 117.933 186.546 118.498C184.51 119.017 182.568 119.276 180.721 119.276C175.133 119.276 170.705 117.674 167.437 114.469C164.169 111.265 162.536 106.882 162.536 101.321C162.536 97.7865 163.246 94.6526 164.667 91.9193C166.087 89.186 168.077 87.0653 170.634 85.5573C173.239 84.0493 176.175 83.2952 179.443 83.2952C182.568 83.2952 185.291 83.9786 187.612 85.3452C189.933 86.7119 191.732 88.6441 193.011 91.1417C194.29 93.6394 194.929 96.5848 194.929 99.9779C194.929 102.004 194.029 103.017 192.23 103.017H171.273C171.557 106.269 172.481 108.673 174.044 110.228C175.607 111.736 177.88 112.49 180.863 112.49C182.379 112.49 183.705 112.301 184.842 111.924C186.026 111.547 187.352 111.029 188.82 110.369C190.24 109.615 191.282 109.238 191.945 109.238ZM179.656 89.5159C177.24 89.5159 175.299 90.2699 173.831 91.7779C172.41 93.286 171.557 95.4538 171.273 98.2813H187.328C187.233 95.4066 186.523 93.2388 185.197 91.7779C183.871 90.2699 182.024 89.5159 179.656 89.5159Z" fill="#F0F8FF"/>
<path d="M214.766 119.276C209.604 119.276 205.437 118.263 202.264 116.236C200.748 115.341 199.99 114.069 199.99 112.419C199.99 111.477 200.251 110.723 200.772 110.157C201.293 109.544 201.932 109.238 202.69 109.238C203.495 109.238 204.608 109.615 206.029 110.369C207.544 111.076 208.918 111.618 210.149 111.995C211.428 112.372 213.038 112.561 214.98 112.561C216.969 112.561 218.508 112.231 219.597 111.571C220.734 110.911 221.302 109.992 221.302 108.814C221.302 108.013 221.065 107.377 220.592 106.905C220.165 106.434 219.36 106.01 218.176 105.633C217.04 105.209 215.287 104.738 212.919 104.219C208.704 103.371 205.674 102.169 203.827 100.614C202.027 99.0589 201.127 96.9147 201.127 94.1814C201.127 92.1078 201.743 90.2463 202.974 88.5969C204.205 86.9004 205.887 85.6044 208.018 84.709C210.196 83.7665 212.659 83.2952 215.406 83.2952C217.395 83.2952 219.313 83.5544 221.16 84.0728C223.007 84.5441 224.664 85.251 226.133 86.1935C227.648 87.136 228.406 88.3849 228.406 89.94C228.406 90.8825 228.145 91.6837 227.624 92.3434C227.103 92.9561 226.464 93.2624 225.706 93.2624C225.185 93.2624 224.664 93.1682 224.143 92.9797C223.67 92.744 223.054 92.4141 222.296 91.99C220.923 91.2831 219.739 90.7647 218.745 90.4348C217.75 90.0578 216.519 89.8693 215.051 89.8693C213.298 89.8693 211.901 90.2228 210.859 90.9297C209.865 91.6366 209.368 92.6026 209.368 93.8279C209.368 95.0061 209.888 95.9015 210.93 96.5141C211.972 97.1267 213.985 97.7394 216.969 98.352C220.142 99.0118 222.628 99.7658 224.428 100.614C226.227 101.462 227.506 102.523 228.264 103.795C229.069 105.067 229.471 106.693 229.471 108.673C229.471 111.877 228.122 114.446 225.422 116.378C222.77 118.31 219.218 119.276 214.766 119.276Z" fill="#F0F8FF"/>
<path d="M249.245 119.276C244.083 119.276 239.915 118.263 236.742 116.236C235.227 115.341 234.469 114.069 234.469 112.419C234.469 111.477 234.729 110.723 235.25 110.157C235.771 109.544 236.411 109.238 237.168 109.238C237.974 109.238 239.086 109.615 240.507 110.369C242.023 111.076 243.396 111.618 244.627 111.995C245.906 112.372 247.516 112.561 249.458 112.561C251.447 112.561 252.986 112.231 254.076 111.571C255.212 110.911 255.78 109.992 255.78 108.814C255.78 108.013 255.544 107.377 255.07 106.905C254.644 106.434 253.839 106.01 252.655 105.633C251.518 105.209 249.766 104.738 247.398 104.219C243.183 103.371 240.152 102.169 238.305 100.614C236.505 99.0589 235.606 96.9147 235.606 94.1814C235.606 92.1078 236.221 90.2463 237.453 88.5969C238.684 86.9004 240.365 85.6044 242.496 84.709C244.675 83.7665 247.137 83.2952 249.884 83.2952C251.873 83.2952 253.791 83.5544 255.638 84.0728C257.485 84.5441 259.143 85.251 260.611 86.1935C262.127 87.136 262.884 88.3849 262.884 89.94C262.884 90.8825 262.624 91.6837 262.103 92.3434C261.582 92.9561 260.943 93.2624 260.185 93.2624C259.664 93.2624 259.143 93.1682 258.622 92.9797C258.148 92.744 257.533 92.4141 256.775 91.99C255.402 91.2831 254.218 90.7647 253.223 90.4348C252.229 90.0578 250.997 89.8693 249.529 89.8693C247.777 89.8693 246.38 90.2228 245.338 90.9297C244.343 91.6366 243.846 92.6026 243.846 93.8279C243.846 95.0061 244.367 95.9015 245.409 96.5141C246.451 97.1267 248.464 97.7394 251.447 98.352C254.62 99.0118 257.106 99.7658 258.906 100.614C260.706 101.462 261.984 102.523 262.742 103.795C263.547 105.067 263.95 106.693 263.95 108.673C263.95 111.877 262.6 114.446 259.901 116.378C257.249 118.31 253.697 119.276 249.245 119.276Z" fill="#F0F8FF"/>
<path d="M286.21 83.2952C291.04 83.2952 294.616 84.497 296.937 86.9004C299.305 89.2567 300.488 92.8618 300.488 97.7158V114.964C300.488 116.236 300.11 117.25 299.352 118.004C298.594 118.71 297.552 119.064 296.226 119.064C294.995 119.064 293.977 118.687 293.172 117.933C292.414 117.179 292.035 116.189 292.035 114.964V113.409C291.23 115.247 289.951 116.684 288.199 117.721C286.494 118.758 284.505 119.276 282.232 119.276C279.911 119.276 277.804 118.805 275.909 117.862C274.015 116.92 272.523 115.624 271.434 113.974C270.345 112.325 269.8 110.487 269.8 108.461C269.8 105.916 270.439 103.913 271.718 102.452C273.044 100.991 275.175 99.9307 278.111 99.271C281.048 98.6112 285.097 98.2813 290.259 98.2813H292.035V96.6555C292.035 94.3463 291.538 92.6733 290.543 91.6366C289.549 90.5527 287.938 90.0107 285.713 90.0107C284.339 90.0107 282.942 90.2228 281.521 90.6469C280.101 91.0239 278.419 91.5894 276.478 92.3434C275.246 92.9561 274.346 93.2624 273.778 93.2624C272.926 93.2624 272.215 92.9561 271.647 92.3434C271.126 91.7308 270.866 90.9297 270.866 89.94C270.866 89.1389 271.055 88.4556 271.434 87.89C271.86 87.2774 272.547 86.7119 273.494 86.1935C275.152 85.2981 277.117 84.5912 279.39 84.0728C281.711 83.5544 283.984 83.2952 286.21 83.2952ZM284.008 112.914C286.376 112.914 288.294 112.136 289.762 110.581C291.277 108.979 292.035 106.929 292.035 104.431V102.947H290.756C287.583 102.947 285.121 103.088 283.368 103.371C281.616 103.654 280.361 104.149 279.603 104.855C278.846 105.562 278.467 106.528 278.467 107.754C278.467 109.262 278.988 110.511 280.029 111.5C281.119 112.443 282.445 112.914 284.008 112.914Z" fill="#F0F8FF"/>
<path d="M338.923 83.4366C340.249 83.4366 341.315 83.8136 342.12 84.5677C342.925 85.3217 343.327 86.3349 343.327 87.6073V115.529C343.327 120.949 341.812 125.049 338.781 127.829C335.75 130.61 331.275 132 325.355 132C320.193 132 315.883 131.034 312.426 129.102C310.673 128.065 309.797 126.816 309.797 125.355C309.797 124.318 310.034 123.494 310.508 122.881C311.029 122.268 311.692 121.962 312.497 121.962C312.923 121.962 313.444 122.056 314.06 122.245C314.675 122.481 315.315 122.74 315.978 123.022C317.683 123.729 319.198 124.271 320.524 124.648C321.897 125.025 323.46 125.214 325.213 125.214C331.417 125.214 334.519 122.198 334.519 116.166V111.642C333.477 113.574 331.961 115.082 329.972 116.166C327.983 117.202 325.71 117.721 323.152 117.721C320.122 117.721 317.422 117.014 315.054 115.6C312.734 114.139 310.91 112.113 309.584 109.521C308.258 106.929 307.595 103.936 307.595 100.543C307.595 97.1503 308.234 94.1578 309.513 91.5659C310.839 88.9268 312.686 86.9004 315.054 85.4866C317.422 84.0257 320.122 83.2952 323.152 83.2952C325.71 83.2952 327.983 83.8372 329.972 84.9211C331.961 85.9579 333.477 87.4423 334.519 89.3745V87.5366C334.519 86.3113 334.921 85.3217 335.726 84.5677C336.531 83.8136 337.597 83.4366 338.923 83.4366ZM325.497 110.864C328.338 110.864 330.54 109.945 332.103 108.107C333.713 106.269 334.519 103.748 334.519 100.543C334.519 97.2917 333.713 94.7469 332.103 92.909C330.54 91.071 328.338 90.1521 325.497 90.1521C322.703 90.1521 320.5 91.071 318.89 92.909C317.28 94.7469 316.475 97.2917 316.475 100.543C316.475 103.748 317.28 106.269 318.89 108.107C320.5 109.945 322.703 110.864 325.497 110.864Z" fill="#F0F8FF"/>
<path d="M380.016 109.238C380.821 109.238 381.461 109.544 381.934 110.157C382.455 110.77 382.716 111.594 382.716 112.631C382.716 114.092 381.84 115.317 380.087 116.307C378.477 117.202 376.654 117.933 374.617 118.498C372.581 119.017 370.639 119.276 368.792 119.276C363.204 119.276 358.776 117.674 355.508 114.469C352.24 111.265 350.607 106.882 350.607 101.321C350.607 97.7865 351.317 94.6526 352.738 91.9193C354.158 89.186 356.148 87.0653 358.705 85.5573C361.31 84.0493 364.246 83.2952 367.514 83.2952C370.639 83.2952 373.362 83.9786 375.683 85.3452C378.004 86.7119 379.803 88.6441 381.082 91.1417C382.361 93.6394 383 96.5848 383 99.9779C383 102.004 382.1 103.017 380.301 103.017H359.344C359.628 106.269 360.552 108.673 362.115 110.228C363.678 111.736 365.951 112.49 368.934 112.49C370.45 112.49 371.776 112.301 372.913 111.924C374.097 111.547 375.423 111.029 376.891 110.369C378.311 109.615 379.353 109.238 380.016 109.238ZM367.727 89.5159C365.311 89.5159 363.37 90.2699 361.902 91.7779C360.481 93.286 359.628 95.4538 359.344 98.2813H375.399C375.304 95.4066 374.594 93.2388 373.268 91.7779C371.942 90.2699 370.095 89.5159 367.727 89.5159Z" fill="#F0F8FF"/>
<path d="M191.945 41.4945C192.75 41.4945 193.39 41.8008 193.863 42.4134C194.384 43.0261 194.645 43.8508 194.645 44.8875C194.645 46.3484 193.769 47.5737 192.016 48.5634C190.406 49.4588 188.583 50.1892 186.546 50.7547C184.51 51.2731 182.568 51.5323 180.721 51.5323C175.133 51.5323 170.705 49.93 167.437 46.7255C164.169 43.5209 162.536 39.1382 162.536 33.5773C162.536 30.0428 163.246 26.909 164.667 24.1757C166.087 21.4423 168.077 19.3217 170.634 17.8136C173.239 16.3056 176.175 15.5516 179.443 15.5516C182.568 15.5516 185.291 16.2349 187.612 17.6016C189.933 18.9682 191.732 20.9004 193.011 23.3981C194.29 25.8958 194.929 28.8411 194.929 32.2342C194.929 34.2606 194.029 35.2738 192.23 35.2738H171.273C171.557 38.5255 172.481 40.929 174.044 42.4841C175.607 43.9921 177.88 44.7462 180.863 44.7462C182.379 44.7462 183.705 44.5577 184.842 44.1806C186.026 43.8036 187.352 43.2853 188.82 42.6255C190.24 41.8715 191.282 41.4945 191.945 41.4945ZM179.656 21.7722C177.24 21.7722 175.299 22.5262 173.831 24.0343C172.41 25.5423 171.557 27.7101 171.273 30.5377H187.328C187.233 27.663 186.523 25.4952 185.197 24.0343C183.871 22.5262 182.024 21.7722 179.656 21.7722Z" fill="#F0F8FF"/>
<path d="M206.597 51.3909C205.318 51.3909 204.253 51.0375 203.4 50.3306C202.595 49.5766 202.193 48.5162 202.193 47.1496V4.94823C202.193 3.58158 202.595 2.5448 203.4 1.83791C204.253 1.13102 205.318 0.777578 206.597 0.777578C207.876 0.777578 208.941 1.13102 209.794 1.83791C210.646 2.5448 211.072 3.58158 211.072 4.94823V47.1496C211.072 48.5162 210.646 49.5766 209.794 50.3306C208.941 51.0375 207.876 51.3909 206.597 51.3909Z" fill="#F0F8FF"/>
<path d="M236.071 51.5323C232.519 51.5323 229.394 50.8019 226.694 49.341C224.042 47.88 221.982 45.7829 220.514 43.0496C219.046 40.3163 218.312 37.1353 218.312 33.5066C218.312 29.8779 219.046 26.7205 220.514 24.0343C221.982 21.301 224.042 19.2039 226.694 17.7429C229.394 16.282 232.519 15.5516 236.071 15.5516C239.623 15.5516 242.725 16.282 245.377 17.7429C248.077 19.2039 250.137 21.301 251.558 24.0343C253.026 26.7205 253.76 29.8779 253.76 33.5066C253.76 37.1353 253.026 40.3163 251.558 43.0496C250.137 45.7829 248.077 47.88 245.377 49.341C242.725 50.8019 239.623 51.5323 236.071 51.5323ZM236 44.6755C238.889 44.6755 241.091 43.733 242.607 41.8479C244.122 39.9629 244.88 37.1824 244.88 33.5066C244.88 29.8779 244.122 27.121 242.607 25.236C241.091 23.3038 238.913 22.3377 236.071 22.3377C233.23 22.3377 231.028 23.3038 229.465 25.236C227.949 27.121 227.191 29.8779 227.191 33.5066C227.191 37.1824 227.949 39.9629 229.465 41.8479C230.98 43.733 233.159 44.6755 236 44.6755Z" fill="#F0F8FF"/>
<path d="M290.074 0.777578C291.4 0.777578 292.489 1.15459 293.342 1.9086C294.194 2.66262 294.621 3.65227 294.621 4.87754V47.1496C294.621 48.422 294.218 49.4352 293.413 50.1892C292.608 50.9432 291.542 51.3202 290.216 51.3202C288.89 51.3202 287.825 50.9432 287.02 50.1892C286.214 49.4352 285.812 48.422 285.812 47.1496V45.3824C284.77 47.3145 283.254 48.8226 281.265 49.9065C279.324 50.9904 277.098 51.5323 274.588 51.5323C271.604 51.5323 268.928 50.7783 266.561 49.2703C264.24 47.7622 262.417 45.6416 261.091 42.9082C259.812 40.1278 259.173 36.9468 259.173 33.3652C259.173 29.7836 259.812 26.6498 261.091 23.9636C262.417 21.2774 264.24 19.2039 266.561 17.7429C268.881 16.282 271.557 15.5516 274.588 15.5516C277.098 15.5516 279.324 16.07 281.265 17.1067C283.207 18.1435 284.699 19.6044 285.741 21.4895V4.73616C285.741 3.55801 286.12 2.61549 286.877 1.9086C287.683 1.15459 288.748 0.777578 290.074 0.777578ZM276.932 44.6755C279.774 44.6755 281.952 43.7094 283.468 41.7772C285.03 39.8451 285.812 37.0882 285.812 33.5066C285.812 29.925 285.03 27.1917 283.468 25.3067C281.952 23.3745 279.797 22.4084 277.003 22.4084C274.162 22.4084 271.959 23.3509 270.397 25.236C268.834 27.121 268.052 29.8308 268.052 33.3652C268.052 36.9468 268.834 39.7272 270.397 41.7065C271.959 43.6858 274.138 44.6755 276.932 44.6755Z" fill="#F0F8FF"/>
<path d="M308.16 51.3909C306.881 51.3909 305.815 51.0375 304.963 50.3306C304.158 49.5766 303.755 48.5162 303.755 47.1496V19.8636C303.755 18.497 304.158 17.4602 304.963 16.7533C305.815 16.0464 306.881 15.693 308.16 15.693C309.438 15.693 310.504 16.0464 311.356 16.7533C312.209 17.4602 312.635 18.497 312.635 19.8636V47.1496C312.635 48.5162 312.209 49.5766 311.356 50.3306C310.504 51.0375 309.438 51.3909 308.16 51.3909ZM308.16 9.40164C306.549 9.40164 305.271 8.97751 304.323 8.12924C303.376 7.23385 302.903 6.07926 302.903 4.66548C302.903 3.25169 303.376 2.12067 304.323 1.2724C305.271 0.424134 306.549 0 308.16 0C309.722 0 310.977 0.424134 311.925 1.2724C312.919 2.12067 313.416 3.25169 313.416 4.66548C313.416 6.07926 312.943 7.23385 311.996 8.12924C311.048 8.97751 309.77 9.40164 308.16 9.40164Z" fill="#F0F8FF"/>
<path d="M349.284 41.4945C350.089 41.4945 350.728 41.8008 351.202 42.4134C351.723 43.0261 351.983 43.8508 351.983 44.8875C351.983 46.3484 351.107 47.5737 349.355 48.5634C347.745 49.4588 345.922 50.1892 343.885 50.7547C341.849 51.2731 339.907 51.5323 338.06 51.5323C332.472 51.5323 328.044 49.93 324.776 46.7255C321.508 43.5209 319.874 39.1382 319.874 33.5773C319.874 30.0428 320.585 26.909 322.005 24.1757C323.426 21.4423 325.415 19.3217 327.973 17.8136C330.577 16.3056 333.514 15.5516 336.781 15.5516C339.907 15.5516 342.63 16.2349 344.951 17.6016C347.271 18.9682 349.071 20.9004 350.35 23.3981C351.628 25.8958 352.268 28.8411 352.268 32.2342C352.268 34.2606 351.368 35.2738 349.568 35.2738H328.612C328.896 38.5255 329.82 40.929 331.382 42.4841C332.945 43.9921 335.218 44.7462 338.202 44.7462C339.718 44.7462 341.044 44.5577 342.18 44.1806C343.364 43.8036 344.69 43.2853 346.158 42.6255C347.579 41.8715 348.621 41.4945 349.284 41.4945ZM336.994 21.7722C334.579 21.7722 332.637 22.5262 331.169 24.0343C329.748 25.5423 328.896 27.7101 328.612 30.5377H344.667C344.572 27.663 343.861 25.4952 342.535 24.0343C341.209 22.5262 339.362 21.7722 336.994 21.7722Z" fill="#F0F8FF"/>
<path d="M47.3588 115.765C47.3588 123.899 36.7572 130.492 23.6794 130.492C10.6016 130.492 0 123.899 0 115.765C0 107.632 10.6016 101.038 23.6794 101.038C36.7572 101.038 47.3588 107.632 47.3588 115.765Z" fill="#F0F8FF"/>
</svg>
