<svg width="225" height="249" viewBox="0 0 225 249" fill="none" xmlns="http://www.w3.org/2000/svg">
<path d="M32.0142 209.27C21.9942 197.483 15.3122 183.228 12.6621 167.986C18.5279 155.944 30.1564 151.472 41.3892 146.81C57.6622 140.067 74.9844 137.693 92.3755 136.764C119.898 135.285 147.267 136.007 174.067 143.507C182.706 145.993 190.999 149.553 198.752 154.104C204.591 157.137 209.26 162.018 212.032 167.986L209.4 177.945C199.302 194.975 184.922 207.326 168.339 217.63C157.485 224.356 145.632 228.141 133.402 230.755C105.287 237.043 75.8693 233.592 49.9729 220.967C43.8657 217.98 38.2784 214.031 33.4248 209.27L33.6656 209.391C33.2011 208.014 32.6335 208.41 32.0142 209.27Z" fill="#FBBE64"/>
<path d="M212.031 168.003C201.551 157.05 188.177 149.296 173.465 145.641C144.91 138.382 115.993 137.195 86.6125 139.827C67.7936 141.547 49.5769 144.506 32.8394 153.244C25.5459 157.063 19.3532 163.015 12.6617 167.986L10.5975 149.219C12.3309 148.424 14.2122 148.002 16.1192 147.98C30.156 146.105 35.7638 134.959 29.0722 122.384C27.7133 119.821 25.0814 117.774 25.4771 114.402C27.8853 111.77 30.6376 113.491 33.0459 114.127C37.8624 115.348 40.8727 113.301 42.9886 109.207C45.328 104.614 45.2248 100.297 41.4748 96.4779C38.5849 93.5364 35.2477 93.4848 31.7901 95.377C27.4725 97.7337 24.2213 100.727 25.2534 106.335C25.7695 109.087 28.1605 111.908 25.1502 114.643C24.3283 114.905 23.4618 114.998 22.6031 114.916C21.7443 114.834 20.9111 114.579 20.1538 114.165C19.3965 113.752 18.7308 113.19 18.1971 112.512C17.6633 111.834 17.2724 111.055 17.0482 110.222C20.3337 102.585 23.6192 94.9298 26.7328 87.7222C20.0585 80.6694 13.1605 73.4619 6.36579 66.1511C4.6456 64.4309 2.66741 62.4871 2.08254 60.3024C0.964423 56.1052 -1.09981 50.3942 0.723582 47.6763C2.54698 44.9584 8.86007 43.9435 12.8853 44.494C26.4773 46.064 39.1011 52.309 48.5964 62.1602L92.9772 45.3884C93.3604 45.3133 93.7564 45.3354 94.129 45.4525C94.5016 45.5697 94.8389 45.7783 95.1102 46.0593C101.2 52.0971 101.182 52.0972 104.468 43.9263L119.95 44.0811C123.562 52.0799 123.562 52.0799 131.182 45.3024C143.688 50.3597 156.349 55.0903 168.614 60.6809C172.794 62.5731 175.133 63.6912 178.935 59.7864C187.983 50.4974 199.852 46.0249 212.392 44.3047C216.297 43.7715 222.714 45.3368 224.279 48.0719C225.844 50.807 224.709 57.5157 222.335 60.5949C216.228 68.4905 208.711 75.2853 201.934 82.6821C200.257 84.8459 198.767 87.1477 197.478 89.5628C197.478 92.9172 195.535 95.7211 194.64 98.8346C191.303 110.652 196.687 119.184 208.746 120.991C209.821 121.06 210.859 121.41 211.756 122.006L212.169 125.876C210.844 128.491 207.937 129.058 205.856 130.692C197.685 137.126 198.08 146.174 206.802 151.971C209.021 153.45 211.962 153.795 213.683 156.065C213.063 160.073 212.582 164.047 212.031 168.003Z" fill="#F6AA45"/>
<path d="M33.4075 209.27C34.6976 209.546 36.2974 209.408 37.2091 210.13C59.0038 227.642 84.927 232.613 111.573 231.426C150.397 229.706 182.513 213.64 205.082 180.836C205.994 179.494 207.972 178.909 209.451 177.963C198.889 210.939 176.768 233.009 144.084 243.33C103.746 255.991 67.966 246.564 37.9143 216.581C35.8845 214.586 34.8868 211.713 33.4075 209.27Z" fill="#F6AA45"/>
<path d="M131.201 45.3195L123.907 53.112C122.6 50.1017 121.275 47.1086 119.968 44.0982C121.688 36.4262 123.804 28.8058 124.87 21.0305C125.249 18.261 123.03 15.1475 122.015 12.1887C121.206 9.81489 119.211 6.8906 119.951 5.17041C120.931 2.88257 124.285 -0.196565 126.212 0.00985693C132.049 0.778817 137.727 2.46838 143.035 5.0156C144.326 5.63487 144.446 12.9629 143.397 13.4445C134.452 17.5041 134.796 25.7438 133.437 33.2439C132.623 37.292 131.877 41.3172 131.201 45.3195Z" fill="#6D3218"/>
<path d="M104.468 43.9434C103.23 46.9537 101.974 49.9812 100.718 52.9915L92.9776 45.4056C90.6725 37.3723 88.5567 29.2702 85.942 21.323C85.4604 19.8436 82.9661 19.0523 81.5211 17.8826C79.1645 15.8356 75.0876 13.7025 75.0532 11.5695C75.0532 8.9204 77.9947 5.73804 80.4374 3.75983C82.6724 2.1935 85.3666 1.41856 88.0923 1.55799C91.9152 1.95398 95.7003 2.65577 99.4111 3.65662C98.637 7.09699 97.6909 10.5374 97.1232 13.9777C96.5922 15.9458 96.4924 18.0054 96.8308 20.0156C99.1874 28.0489 101.888 35.9789 104.468 43.9434Z" fill="#6D3218"/>
<path d="M17.0482 110.239L25.6492 114.126C28.0746 117.962 31.2397 121.54 32.7879 125.72C37.6732 138.931 27.2661 154.172 10.5975 149.321C10.4599 146.07 10.3051 142.836 10.1675 139.602V139.224C12.484 129.534 14.7776 119.872 17.0482 110.239Z" fill="#8D5517"/>
<path d="M211.774 122.039C198.356 124.654 189.085 114.539 192.336 100.331C193.196 96.5463 195.776 93.1575 197.496 89.5967L211.774 122.039Z" fill="#8D5517"/>
<path d="M213.666 156.099C203.5 154.018 197.582 148.754 197.857 140.91C198.167 132.016 204.308 127.957 212.186 125.893C212.668 135.973 213.161 146.042 213.666 156.099Z" fill="#8D5517"/>
<path d="M141.848 157.888C147.387 165.096 146.699 174.505 140.953 178.737C137.926 180.956 134.073 181.919 133.987 176.827C133.935 170.016 134.881 162.894 141.848 157.888Z" fill="#C7721A"/>
<path d="M91.6014 181.231C79.6461 176.845 75.6897 168.966 80.0418 162.309C80.9879 160.864 82.8629 159.161 84.2906 159.196C85.7184 159.23 87.387 161.329 87.731 162.843C89.2104 168.278 90.1393 173.921 91.6014 181.231Z" fill="#C7721A"/>
<path d="M58.3846 97.699C66.4179 86.3458 78.3732 83.2495 89.348 89.6486C100.323 96.0477 103.471 108.691 97.4329 120.612C89.0556 128.215 78.2872 130.211 70.1163 124.912C61.9454 119.614 53.5853 110.566 58.3846 97.699Z" fill="#FCFBFA"/>
<path d="M131.819 92.6588C140.833 84.5739 153.15 84.1955 161.922 91.5235C169.199 97.5785 173.499 111.736 166.464 120.767C152.892 130.744 141.332 129.368 131.269 116.913C124.56 108.502 126.022 100.589 131.819 92.6588Z" fill="#FCFBFA"/>
<path d="M206.888 58.5131C213.769 58.0659 215.971 61.7471 212.496 65.2218C203.814 73.6296 194.622 81.4943 184.973 88.7712C183.735 89.7345 178.385 88.0831 177.593 86.3973C176.303 83.6106 175.787 78.8629 177.353 76.6095C184.749 66.0303 195.862 61.0762 206.888 58.5131Z" fill="#EF861D"/>
<path d="M15.1222 58.0312C28.7117 60.6115 39.7897 66.1161 47.3413 76.7813C48.9239 79.0175 48.1326 84.4705 46.3608 87.0163C45.2255 88.7365 39.2736 89.1494 37.3126 87.6872C28.9327 81.3324 20.8939 74.5397 13.23 67.3375C11.7506 65.9785 11.355 62.8478 11.5098 60.5943C11.4926 59.5794 14.0729 58.7193 15.1222 58.0312Z" fill="#EF861D"/>
<path d="M25.7185 114.126C21.9685 100.795 22.8286 96.6149 31.9628 93.3638C33.8882 92.8737 35.8974 92.8108 37.8497 93.1792C39.802 93.5477 41.6501 94.3387 43.2644 95.4968C48.3045 99.6081 47.9777 106.076 44.2621 110.892C42.0603 113.731 37.6222 115.451 33.941 116.294C31.4811 116.827 28.4708 114.883 25.7185 114.04V114.126Z" fill="#8D5517"/>
<path d="M191.871 130.348C191.877 131.911 191.567 133.46 190.958 134.899C190.349 136.339 189.456 137.641 188.331 138.726C187.205 139.811 185.872 140.657 184.411 141.212C182.95 141.768 181.392 142.022 179.83 141.96C173.465 141.667 169.664 138.519 169.509 131.879C169.354 125.239 176.166 117.137 181.378 117.464C186.59 117.791 191.906 124.62 191.871 130.348Z" fill="#8D5517"/>
<path d="M131.819 92.6592C131.974 93.9321 132.697 95.9447 132.181 96.3231C124.491 102.172 128.448 108.623 131.716 114.265C136.687 122.866 145.736 126.977 153.597 125.085C157.983 124.018 162.198 122.195 166.464 120.698C162.009 130.194 153.906 132.963 144.325 132.086C134.744 131.209 128.327 125.618 125.283 116.742C122.117 107.504 124.01 99.1615 131.819 92.6592Z" fill="#EBE9E5"/>
<path d="M58.385 97.6987C58.5054 122.349 73.7462 131.277 97.416 120.594C90.6901 132.274 77.9779 135.99 66.3494 129.643C54.721 123.295 51.6074 110.136 58.385 97.6987Z" fill="#EBE9E5"/>
<circle cx="84.2892" cy="110.092" r="8.60093" fill="#1B1B1B"/>
<circle cx="144.496" cy="110.092" r="8.60093" fill="#1B1B1B"/>
<circle cx="88.5896" cy="109.232" r="2.58028" fill="#EBE9E5"/>
<circle cx="148.796" cy="109.232" r="2.58028" fill="#EBE9E5"/>
</svg>
