<svg width="268" height="184" viewBox="0 0 268 184" fill="none" xmlns="http://www.w3.org/2000/svg">
<path d="M84.4799 13.8958C93.7999 10.3658 102.89 5.89581 112.48 3.49581C134.97 -2.22419 156.62 1.11581 177.17 11.8758C178.98 12.6667 180.84 13.3349 182.74 13.8758L194.48 22.8758C195.61 24.2058 196.69 25.5858 197.88 26.8758C214.78 44.8758 224.33 66.0458 225 90.9458V103.046L222.3 112.046C220.708 113.198 219.222 114.49 217.86 115.906C194.24 145.166 163.42 157.656 126.8 150.666C85.9099 142.856 52.5299 105.456 54.1599 61.6058C54.2799 58.2758 53.1599 54.9058 52.6699 51.5558L72.5999 22.9058L84.4799 13.8958ZM155.22 40.9858C151.22 50.2758 153.93 59.5158 162.22 64.8458C171.08 70.5658 180.15 69.1158 187.42 60.8458C193.66 54.2858 194.66 46.9158 190.48 38.9758C186.62 31.6258 180.43 28.2258 172.06 28.7958C163.79 29.3158 157.64 32.5758 155.19 40.9858H155.22ZM104.42 64.4758C111.97 60.0958 115.42 52.9758 113.71 45.1158C111.71 35.8458 105.63 29.8858 97.1799 28.9558C87.2799 27.8758 80.9899 31.2058 77.0799 39.6158C71.0099 46.1758 74.7399 57.8858 80.6899 63.1658C88.0299 69.6858 96.7599 70.0958 104.42 64.4758ZM108.07 109.176C109.29 119.916 114.99 125.126 128.3 127.636C140.6 129.966 154.3 125.636 157.91 117.916C159.11 115.336 158.97 112.126 159.44 109.206C159.14 103.726 159.31 98.2058 158.44 92.7858C155.9 76.8558 152.14 61.2158 142.73 47.7158C137.29 39.8958 131.86 39.2358 126.4 46.5458C112.6 65.0158 106.2 85.9658 108.07 109.176ZM133.41 140.886C141.9 147.746 149.52 147.956 157.22 144.236C163.22 141.336 168.29 137.236 169.45 128.496C155.08 142.936 154.07 143.286 133.41 140.886Z" fill="#AFA9A5"/>
<path d="M84.48 13.8955L72.6 22.9955C66.05 21.1955 59.34 17.4155 52.97 17.9255C25.4 20.0955 11.41 60.5955 25.48 81.7655C29.34 87.5755 34.11 91.8655 41.48 91.1455C42.8 82.9855 43.48 75.1955 45.48 67.7655C46.99 62.1555 50.2 57.0055 52.65 51.6455C53.18 54.9955 54.26 58.3655 54.14 61.6955C52.51 105.545 85.89 142.945 126.78 150.755C163.4 157.755 194.22 145.255 217.84 115.995C219.204 114.593 220.69 113.315 222.28 112.175C217.19 144.735 186.37 175.176 151.89 181.686C100.63 191.356 54.09 159.875 43.47 108.605C43.0783 107.317 42.4151 106.127 41.525 105.116C40.6349 104.106 39.5387 103.297 38.31 102.745C16.1 94.6455 4.54 79.3155 0.309996 55.6955C-1.39 46.1555 4.59999 38.3455 1.50999 29.5355C1.08999 28.3355 3.66999 26.2855 4.36999 24.4355C5.56999 21.2855 6.14999 17.9055 7.41999 14.7955C8.28363 12.734 9.54809 10.8645 11.14 9.29549C21.19 -0.434507 33.88 -0.704509 46.51 0.505491C60.14 1.80549 73.07 5.85549 84.48 13.8955Z" fill="#9C9793"/>
<path d="M194.48 22.9458L182.74 13.9458C201.02 2.16576 220.81 -3.05424 242.25 2.02576C247.76 3.33576 256.61 7.59577 256.81 10.9358C257.37 19.8458 267.87 24.9358 264.58 34.4958C264.31 35.2758 264.96 36.4258 265.31 37.3558C270.83 52.1358 265.76 65.5858 259.18 78.3558C252.6 91.1258 241.72 98.8958 228 102.776C227.011 102.979 226.008 103.106 225 103.156C225 99.1558 225 95.1224 225 91.0558C233.53 91.9958 238.54 87.1958 242.42 80.4758C251.14 65.3458 246.28 40.4758 234.8 28.8458C222.17 15.9858 208.77 13.9258 194.48 22.9458Z" fill="#9C9793"/>
<path d="M108.07 109.176C106.2 85.966 112.6 65.016 126.41 46.546C131.87 39.236 137.3 39.896 142.74 47.716C152.15 61.216 155.91 76.856 158.45 92.786C159.31 98.176 159.14 103.726 159.45 109.206C142.32 102.746 125.19 107.936 108.07 109.176Z" fill="#3F3B3A"/>
<path d="M52.6499 51.6461C50.1999 57.0061 46.9899 62.1761 45.4799 67.7661C43.4799 75.1761 42.8199 82.9861 41.4799 91.1761C34.0999 91.8961 29.3299 87.6061 25.4799 81.7961C11.3999 60.6261 25.3899 20.1261 52.9299 17.9561C59.2999 17.4461 66.0099 21.2261 72.5599 23.0261L52.6499 51.6461Z" fill="#79736D"/>
<path d="M194.48 22.9458C208.8 13.9458 222.2 15.9458 234.8 28.7858C246.28 40.4558 251.14 65.2858 242.42 80.4158C238.48 87.1758 233.48 91.9358 224.97 90.9958C224.3 66.0958 214.75 44.9958 197.85 26.9258C196.66 25.6558 195.58 24.2758 194.48 22.9458Z" fill="#79736D"/>
<path d="M108.07 109.176C125.19 107.936 142.32 102.746 159.44 109.176C158.97 112.096 159.11 115.306 157.91 117.886C154.29 125.646 140.6 129.886 128.3 127.606C114.99 125.176 109.29 119.916 108.07 109.176Z" fill="#060707"/>
<path d="M77.0801 39.6159C80.9901 31.2059 87.2801 27.8759 97.1801 28.9559C105.63 29.8859 111.73 35.8459 113.71 45.1159C115.39 52.9759 111.97 60.1159 104.41 64.4659C102.21 63.7159 99.9901 62.3159 97.7901 62.3459C94.3837 62.469 91.0093 61.6501 88.0382 59.9793C85.0671 58.3086 82.6145 55.8506 80.9501 52.8759C78.6601 49.0559 78.3101 44.0759 77.0801 39.6159ZM102.08 38.1759C99.0801 42.8259 96.0801 45.4959 96.1801 47.9959C96.2901 50.1959 100.37 54.1859 101.97 53.8659C104.54 53.3359 107.97 50.0759 108.29 47.6259C108.48 45.3759 105.16 42.6559 102.03 38.1759H102.08Z" fill="#FCFBFA"/>
<path d="M155.19 40.986C157.64 32.576 163.79 29.316 171.99 28.746C180.36 28.176 186.55 31.576 190.41 38.926C194.59 46.866 193.59 54.236 187.35 60.796C185.11 60.906 182.67 60.456 180.68 61.216C172.15 64.476 160.53 58.276 157.41 47.746C156.74 45.476 155.93 43.236 155.19 40.986ZM172.31 43.986L172.23 43.886L163.39 42.616C163.05 45.616 161.62 49.066 162.73 51.296C163.51 52.836 168.22 53.8059 170.38 52.966C174.48 51.3759 175.21 47.756 172.31 43.986Z" fill="#FCFBFA"/>
<path d="M155.19 40.9858C155.93 43.2358 156.74 45.4758 157.41 47.7458C160.53 58.2758 172.15 64.4758 180.68 61.2158C182.68 60.4558 185.11 60.9058 187.35 60.7958C180.08 69.1158 171.01 70.5658 162.15 64.7958C153.9 59.5158 151.21 50.2758 155.19 40.9858Z" fill="#EBE9E5"/>
<path d="M77.08 39.6157C78.31 44.0757 78.66 49.0557 80.95 52.8757C82.6144 55.8504 85.067 58.3083 88.0381 59.9791C91.0092 61.6499 94.3835 62.4688 97.79 62.3457C99.99 62.3457 102.21 63.7157 104.41 64.4657C96.76 70.0957 88.03 69.6857 80.69 63.1657C74.74 57.8857 71.01 46.1757 77.08 39.6157Z" fill="#EBE9E5"/>
<path d="M133.41 140.886C154.07 143.286 155.08 142.886 169.41 128.496C168.25 137.226 163.18 141.336 157.18 144.236C149.48 147.956 141.9 147.746 133.41 140.886Z" fill="#4F4F4D"/>
<ellipse cx="102" cy="45.5" rx="8" ry="9.5" fill="#FCFBFA"/>
<ellipse cx="168" cy="46.5" rx="8" ry="9.5" fill="#FCFBFA"/>
<circle cx="168" cy="46" r="7" fill="#252525"/>
<circle cx="101" cy="46" r="7" fill="#252525"/>
<circle cx="171.5" cy="44.5" r="1.5" fill="#E5E5E5"/>
<circle cx="104.5" cy="44.5" r="1.5" fill="#E5E5E5"/>
</svg>
