<svg width="56" height="56" viewBox="0 0 56 56" fill="none" xmlns="http://www.w3.org/2000/svg">
<path d="M30.3089 28.5587L8.96824 32.1173C8.72289 32.1583 8.49264 32.2631 8.30066 32.4213C8.10867 32.5794 7.96172 32.7854 7.87457 33.0183L0.516405 52.7298C-0.186262 54.5432 1.70924 56.2715 3.4489 55.4017L54.4489 29.9017C54.8021 29.7253 55.0993 29.454 55.3069 29.1182C55.5146 28.7824 55.6246 28.3953 55.6246 28.0005C55.6246 27.6057 55.5146 27.2187 55.3069 26.8829C55.0993 26.547 54.8021 26.2757 54.4489 26.0994L3.4489 0.599355C1.70924 -0.270478 -0.186262 1.46069 0.516405 3.27119L7.8774 22.9827C7.96414 23.2162 8.11092 23.4227 8.30293 23.5814C8.49495 23.7401 8.7254 23.8453 8.97107 23.8865L30.3117 27.4423C30.4431 27.4654 30.5621 27.5339 30.6478 27.636C30.7336 27.7381 30.7806 27.8672 30.7806 28.0005C30.7806 28.1338 30.7336 28.2629 30.6478 28.365C30.5621 28.4671 30.4431 28.5357 30.3117 28.5587H30.3089Z" fill="white"/>
</svg>
